<svg xmlns="http://www.w3.org/2000/svg" xmlns:xlink="http://www.w3.org/1999/xlink" width="520" zoomAndPan="magnify" viewBox="0 0 390 140.249994" height="187" preserveAspectRatio="xMidYMid meet" version="1.0"><defs><g/><clipPath id="adc63f001e"><path d="M 188.171875 29.445312 L 287 29.445312 L 287 139 L 188.171875 139 Z M 188.171875 29.445312 " clip-rule="nonzero"/></clipPath><clipPath id="7b7090b0cc"><path d="M 1.039062 19.40625 L 62.507812 19.40625 L 62.507812 84 L 1.039062 84 Z M 1.039062 19.40625 " clip-rule="nonzero"/></clipPath><clipPath id="f64778be4f"><path d="M 31.773438 19.40625 C 14.796875 19.40625 1.039062 33.859375 1.039062 51.6875 C 1.039062 69.515625 14.796875 83.964844 31.773438 83.964844 C 48.746094 83.964844 62.507812 69.515625 62.507812 51.6875 C 62.507812 33.859375 48.746094 19.40625 31.773438 19.40625 Z M 31.773438 19.40625 " clip-rule="nonzero"/></clipPath><clipPath id="c063edfb54"><path d="M 1.039062 19.410156 L 62.496094 19.410156 L 62.496094 83.753906 L 1.039062 83.753906 Z M 1.039062 19.410156 " clip-rule="nonzero"/></clipPath><clipPath id="5eab304e40"><path d="M 31.765625 19.410156 C 14.796875 19.410156 1.039062 33.859375 1.039062 51.683594 C 1.039062 69.507812 14.796875 83.957031 31.765625 83.957031 C 48.738281 83.957031 62.496094 69.507812 62.496094 51.683594 C 62.496094 33.859375 48.738281 19.410156 31.765625 19.410156 Z M 31.765625 19.410156 " clip-rule="nonzero"/></clipPath></defs><g clip-path="url(#adc63f001e)"><path fill="#ad0000" d="M 286.792969 71.761719 C 286.644531 72.027344 286.457031 72.324219 286.25 72.644531 C 286.078125 72.90625 285.886719 73.1875 285.695312 73.503906 C 285.527344 73.773438 285.042969 73.886719 284.867188 74.207031 C 284.707031 74.5 284.71875 74.875 284.574219 75.152344 C 284.421875 75.449219 284.179688 75.691406 284.042969 75.96875 C 283.894531 76.269531 283.925781 76.644531 283.792969 76.925781 C 283.648438 77.226562 283.417969 77.472656 283.28125 77.753906 C 283.140625 78.054688 282.875 78.28125 282.734375 78.558594 C 282.585938 78.855469 282.542969 79.195312 282.390625 79.46875 C 282.226562 79.753906 281.925781 79.933594 281.746094 80.195312 C 281.566406 80.460938 281.609375 80.890625 281.398438 81.140625 C 281.191406 81.378906 281.050781 81.714844 280.804688 81.9375 C 280.578125 82.148438 280.199219 82.214844 279.925781 82.417969 C 279.679688 82.597656 279.398438 82.757812 279.109375 82.933594 C 278.847656 83.09375 278.636719 83.386719 278.332031 83.542969 C 278.0625 83.683594 277.785156 83.796875 277.519531 83.972656 C 277.265625 84.136719 276.914062 84.175781 276.664062 84.367188 C 276.421875 84.558594 276.277344 84.867188 276.042969 85.078125 C 275.8125 85.28125 275.589844 85.488281 275.367188 85.710938 C 275.148438 85.925781 274.933594 86.144531 274.722656 86.375 C 274.511719 86.601562 274.277344 86.808594 274.078125 87.046875 C 273.875 87.28125 273.476562 87.359375 273.28125 87.601562 C 273.085938 87.847656 272.847656 88.066406 272.664062 88.3125 C 272.476562 88.5625 272.394531 88.898438 272.21875 89.148438 C 272.035156 89.40625 271.914062 89.703125 271.746094 89.957031 C 271.566406 90.222656 271.261719 90.398438 271.097656 90.648438 C 270.921875 90.921875 271.039062 91.367188 270.882812 91.617188 C 270.710938 91.902344 270.238281 91.980469 270.089844 92.226562 C 269.910156 92.527344 270.144531 93.03125 270.011719 93.261719 C 269.773438 93.667969 269.324219 93.761719 269.242188 93.863281 C 269.09375 94.054688 268.957031 94.441406 268.972656 94.851562 C 268.980469 95.121094 269.167969 95.4375 269.234375 95.789062 C 269.285156 96.074219 269.285156 96.398438 269.367188 96.730469 C 269.4375 97.019531 269.617188 97.300781 269.703125 97.621094 C 269.78125 97.914062 269.785156 98.242188 269.875 98.554688 C 269.957031 98.851562 270.199219 99.109375 270.289062 99.421875 C 270.375 99.71875 270.144531 100.109375 270.230469 100.417969 C 270.316406 100.71875 270.601562 100.96875 270.683594 101.273438 C 270.761719 101.578125 270.777344 101.898438 270.855469 102.207031 C 270.929688 102.515625 271.066406 102.804688 271.132812 103.113281 C 271.199219 103.421875 271.242188 103.738281 271.300781 104.042969 C 271.359375 104.359375 271.519531 104.652344 271.5625 104.960938 C 271.605469 105.28125 271.671875 105.597656 271.691406 105.902344 C 271.714844 106.226562 271.835938 106.554688 271.828125 106.859375 C 271.824219 107.1875 271.386719 107.464844 271.339844 107.761719 C 271.289062 108.089844 271.554688 108.472656 271.449219 108.753906 C 271.332031 109.058594 270.890625 109.15625 270.699219 109.398438 C 270.507812 109.640625 270.570312 110.179688 270.289062 110.347656 C 270.039062 110.5 269.605469 110.324219 269.277344 110.40625 C 268.941406 110.488281 268.769531 110.882812 268.519531 111.003906 C 268.21875 111.148438 267.789062 111.023438 267.5625 111.210938 C 267.324219 111.40625 267.277344 111.796875 267.0625 112.03125 C 266.867188 112.25 266.605469 112.421875 266.382812 112.664062 C 266.191406 112.875 266.09375 113.222656 265.851562 113.449219 C 265.644531 113.640625 265.324219 113.753906 265.054688 113.953125 C 264.828125 114.125 264.429688 114.070312 264.144531 114.242188 C 263.847656 114.425781 263.699219 114.78125 263.515625 114.976562 C 263.269531 115.242188 263.34375 115.601562 263.261719 115.84375 C 263.125 116.246094 263.152344 116.339844 263.296875 116.480469 C 263.496094 116.675781 263.46875 117.121094 263.640625 117.398438 C 263.789062 117.648438 263.746094 117.988281 263.863281 118.28125 C 263.972656 118.558594 264.167969 118.789062 264.238281 119.089844 C 264.308594 119.386719 264.515625 119.660156 264.539062 119.960938 C 264.566406 120.269531 264.714844 120.601562 264.683594 120.898438 C 264.648438 121.207031 264.355469 121.476562 264.253906 121.753906 C 264.148438 122.042969 264.191406 122.453125 264 122.6875 C 263.816406 122.917969 263.367188 122.882812 263.089844 123.042969 C 262.847656 123.183594 262.667969 123.589844 262.34375 123.660156 C 262.070312 123.71875 261.71875 123.542969 261.386719 123.542969 C 261.222656 123.765625 261.101562 124.101562 261.035156 124.476562 C 260.984375 124.777344 260.871094 125.105469 260.847656 125.449219 C 260.824219 125.777344 260.734375 126.105469 260.710938 126.425781 C 260.6875 126.773438 260.859375 127.125 260.804688 127.421875 C 260.734375 127.804688 260.441406 127.964844 260.257812 128.160156 C 260.039062 128.394531 259.828125 128.65625 259.625 128.902344 C 259.421875 129.148438 259.316406 129.480469 259.125 129.734375 C 258.929688 129.988281 258.964844 130.414062 258.773438 130.667969 C 258.578125 130.925781 258.1875 131.027344 257.984375 131.273438 C 257.785156 131.523438 257.792969 131.960938 257.574219 132.195312 C 257.359375 132.429688 256.902344 132.425781 256.660156 132.636719 C 256.421875 132.847656 256.203125 133.066406 255.933594 133.246094 C 255.671875 133.417969 255.464844 133.710938 255.167969 133.847656 C 254.917969 133.964844 254.597656 134.023438 254.339844 134.253906 C 254.128906 134.449219 254.074219 134.839844 253.839844 135.070312 C 253.628906 135.28125 253.378906 135.484375 253.136719 135.695312 C 252.910156 135.894531 252.667969 136.128906 252.40625 136.304688 C 252.15625 136.472656 251.671875 136.222656 251.378906 136.351562 C 251.105469 136.46875 250.9375 136.898438 250.621094 136.964844 C 250.332031 137.023438 250.007812 137.113281 249.679688 137.117188 C 249.339844 137.121094 249.015625 137.054688 248.699219 137.113281 C 248.371094 137.171875 248.050781 137.230469 247.730469 137.328125 C 247.421875 137.425781 247.128906 137.585938 246.816406 137.707031 C 246.511719 137.820312 246.222656 137.984375 245.90625 138.105469 C 245.605469 138.222656 245.25 138.222656 244.925781 138.332031 C 244.625 138.429688 244.339844 138.652344 244.007812 138.738281 C 243.699219 138.816406 243.328125 138.671875 242.988281 138.726562 C 242.648438 138.78125 242.363281 138.910156 242.089844 138.90625 C 241.742188 138.902344 241.480469 138.746094 241.226562 138.660156 C 240.910156 138.550781 240.539062 138.578125 240.332031 138.371094 C 240.121094 138.160156 240.074219 137.804688 239.941406 137.519531 C 239.820312 137.25 239.828125 136.933594 239.742188 136.632812 C 239.660156 136.34375 239.238281 136.136719 239.160156 135.839844 C 239.082031 135.542969 239.082031 135.238281 238.980469 134.957031 C 238.875 134.664062 238.851562 134.359375 238.6875 134.105469 C 238.496094 133.804688 238.382812 133.5 238.246094 133.246094 C 238.070312 132.921875 237.695312 132.726562 237.59375 132.464844 C 237.453125 132.113281 237.382812 131.769531 237.320312 131.5 C 237.242188 131.144531 237.53125 130.765625 237.457031 130.476562 C 237.382812 130.183594 237.375 129.792969 237.164062 129.488281 C 237.015625 129.265625 236.632812 129.140625 236.347656 128.875 C 236.125 128.667969 235.679688 128.601562 235.492188 128.324219 C 235.320312 128.074219 235.398438 127.644531 235.253906 127.34375 C 235.121094 127.070312 234.808594 126.847656 234.695312 126.539062 C 234.585938 126.25 234.4375 125.949219 234.34375 125.636719 C 234.253906 125.339844 234.375 124.96875 234.292969 124.65625 C 234.21875 124.351562 234.335938 124 234.265625 123.683594 C 234.195312 123.378906 234.097656 123.078125 234.03125 122.761719 C 233.96875 122.453125 233.925781 122.136719 233.863281 121.824219 C 233.800781 121.511719 233.730469 121.203125 233.667969 120.890625 C 233.609375 120.574219 233.585938 120.253906 233.523438 119.945312 C 233.457031 119.628906 233.320312 119.328125 233.253906 119.019531 C 233.183594 118.703125 232.996094 118.417969 232.921875 118.117188 C 232.84375 117.796875 232.886719 117.453125 232.796875 117.15625 C 232.707031 116.839844 232.355469 116.621094 232.246094 116.335938 C 232.132812 116.023438 232.125 115.6875 231.988281 115.421875 C 231.84375 115.140625 231.902344 114.757812 231.765625 114.492188 C 231.617188 114.207031 231.375 113.992188 231.25 113.71875 C 231.117188 113.429688 230.871094 113.199219 230.78125 112.910156 C 230.691406 112.609375 230.730469 112.289062 230.710938 111.984375 C 230.6875 111.683594 230.425781 111.332031 230.492188 111.019531 C 230.5625 110.691406 230.871094 110.425781 230.886719 110.117188 C 230.90625 109.789062 230.675781 109.46875 230.675781 109.152344 C 230.671875 108.828125 231.066406 108.527344 231.089844 108.203125 C 231.113281 107.890625 230.925781 107.558594 231.015625 107.234375 C 231.09375 106.945312 231.257812 106.671875 231.425781 106.367188 C 231.566406 106.109375 231.65625 105.785156 231.878906 105.511719 C 232.105469 105.234375 232.425781 105.078125 232.554688 104.847656 C 232.734375 104.527344 232.648438 104.179688 232.691406 103.917969 C 232.746094 103.589844 232.609375 103.355469 232.535156 103.058594 C 232.464844 102.773438 232.378906 102.5 232.273438 102.1875 C 232.179688 101.917969 232.226562 101.574219 232.167969 101.246094 C 232.117188 100.96875 232.300781 100.664062 232.308594 100.320312 C 232.316406 100.007812 232.371094 99.679688 232.355469 99.378906 C 232.335938 99.066406 232.082031 98.769531 232.035156 98.472656 C 231.992188 98.160156 232.066406 97.824219 231.996094 97.53125 C 231.925781 97.226562 231.820312 96.921875 231.726562 96.636719 C 231.632812 96.335938 231.378906 96.09375 231.269531 95.816406 C 231.148438 95.515625 231.042969 95.226562 230.914062 94.964844 C 230.769531 94.667969 230.683594 94.359375 230.539062 94.113281 C 230.363281 93.816406 230.332031 93.445312 230.179688 93.230469 C 229.898438 92.84375 229.484375 92.730469 229.378906 92.675781 C 229.144531 92.5625 229.007812 92.25 228.738281 92.027344 C 228.515625 91.847656 228.246094 91.710938 228.019531 91.476562 C 227.816406 91.261719 227.339844 91.265625 227.140625 91.019531 C 226.949219 90.785156 226.851562 90.453125 226.679688 90.199219 C 226.503906 89.945312 226.65625 89.496094 226.511719 89.230469 C 226.359375 88.953125 226.226562 88.707031 226.117188 88.433594 C 226 88.132812 225.628906 87.933594 225.574219 87.648438 C 225.515625 87.324219 225.664062 87.019531 225.707031 86.738281 C 225.753906 86.425781 225.875 86.214844 226.074219 85.976562 C 226.285156 85.722656 226.355469 85.378906 226.457031 85.109375 C 226.570312 84.816406 226.867188 84.535156 226.898438 84.230469 C 226.925781 83.929688 226.574219 83.597656 226.566406 83.289062 C 226.558594 82.984375 226.550781 82.671875 226.550781 82.367188 C 226.546875 82.058594 226.546875 81.734375 226.597656 81.433594 C 226.636719 81.210938 226.183594 80.664062 225.800781 80.53125 C 225.539062 80.441406 225.179688 80.367188 224.832031 80.386719 C 224.542969 80.40625 224.238281 80.789062 223.914062 80.789062 C 223.613281 80.789062 223.289062 80.652344 222.976562 80.5625 C 222.699219 80.480469 222.480469 80.234375 222.207031 80.03125 C 221.984375 79.867188 221.761719 79.671875 221.546875 79.398438 C 221.339844 79.128906 221.148438 78.851562 220.914062 78.652344 C 220.664062 78.433594 220.292969 78.40625 220.015625 78.261719 C 219.730469 78.109375 219.476562 77.882812 219.167969 77.800781 C 218.863281 77.71875 218.546875 77.558594 218.222656 77.53125 C 217.90625 77.507812 217.566406 77.5 217.242188 77.519531 C 216.925781 77.535156 216.621094 77.789062 216.300781 77.839844 C 215.988281 77.886719 215.632812 77.761719 215.316406 77.835938 C 215.007812 77.90625 214.699219 78.027344 214.390625 78.117188 C 214.082031 78.210938 213.75 78.242188 213.449219 78.34375 C 213.136719 78.445312 212.808594 78.5 212.515625 78.605469 C 212.203125 78.714844 211.921875 78.894531 211.632812 79 C 211.3125 79.113281 211.035156 79.289062 210.75 79.378906 C 210.410156 79.492188 210.167969 79.898438 209.894531 79.953125 C 209.488281 80.027344 209.082031 79.855469 208.863281 79.742188 C 208.570312 79.59375 208.300781 79.261719 207.964844 79.246094 C 207.65625 79.230469 207.308594 79.355469 206.964844 79.410156 C 206.660156 79.457031 206.375 79.734375 206.039062 79.800781 C 205.730469 79.859375 205.417969 80.011719 205.082031 80.066406 C 204.769531 80.117188 204.398438 79.722656 204.058594 79.746094 C 203.742188 79.769531 203.421875 80.234375 203.085938 80.21875 C 202.769531 80.203125 202.464844 79.878906 202.128906 79.820312 C 201.820312 79.765625 201.476562 79.792969 201.152344 79.6875 C 200.855469 79.59375 200.5625 79.433594 200.25 79.289062 C 199.96875 79.160156 199.605469 79.125 199.3125 78.949219 C 199.042969 78.792969 198.777344 78.578125 198.5 78.378906 C 198.246094 78.195312 197.933594 78.042969 197.671875 77.824219 C 197.453125 77.640625 197.28125 77.335938 197.011719 77.109375 C 196.777344 76.910156 196.699219 76.503906 196.453125 76.28125 C 196.214844 76.070312 195.898438 75.941406 195.667969 75.71875 C 195.429688 75.488281 195.101562 75.355469 194.894531 75.121094 C 194.667969 74.863281 194.628906 74.492188 194.460938 74.242188 C 194.265625 73.945312 193.867188 73.765625 193.792969 73.488281 C 193.703125 73.140625 193.925781 72.710938 193.796875 72.457031 C 193.640625 72.152344 193.304688 71.957031 193.101562 71.730469 C 192.890625 71.496094 192.671875 71.261719 192.421875 71.046875 C 192.195312 70.851562 191.753906 70.867188 191.503906 70.636719 C 191.289062 70.433594 191.347656 69.945312 191.125 69.679688 C 190.9375 69.453125 190.484375 69.398438 190.296875 69.105469 C 190.136719 68.859375 190.132812 68.488281 189.976562 68.179688 C 189.84375 67.917969 189.730469 67.625 189.597656 67.304688 C 189.457031 66.957031 189.277344 66.695312 189.152344 66.46875 C 188.949219 66.105469 188.96875 65.738281 188.835938 65.546875 C 188.644531 65.265625 188.171875 65.1875 188.210938 64.789062 C 188.230469 64.566406 188.363281 64.265625 188.480469 63.859375 C 188.554688 63.609375 188.605469 63.296875 188.71875 62.941406 C 188.828125 62.609375 188.882812 62.292969 188.964844 61.996094 C 189.0625 61.65625 189.511719 61.433594 189.578125 61.140625 C 189.660156 60.789062 189.699219 60.449219 189.742188 60.15625 C 189.796875 59.789062 189.699219 59.441406 189.707031 59.152344 C 189.714844 58.769531 189.515625 58.472656 189.464844 58.195312 C 189.394531 57.808594 189.277344 57.554688 189.152344 57.3125 C 188.976562 56.96875 188.78125 56.710938 188.671875 56.445312 C 188.566406 56.183594 188.5 55.792969 188.652344 55.378906 C 188.773438 55.042969 189.179688 54.835938 189.292969 54.542969 C 189.421875 54.207031 189.46875 53.867188 189.589844 53.578125 C 189.726562 53.242188 189.757812 52.890625 189.882812 52.613281 C 190.039062 52.273438 190.082031 51.917969 190.21875 51.648438 C 190.394531 51.308594 190.816406 51.160156 190.964844 50.910156 C 191.167969 50.566406 191.316406 50.285156 191.476562 50.050781 C 191.695312 49.738281 191.671875 49.371094 191.820312 49.09375 C 191.964844 48.832031 192.453125 48.679688 192.550781 48.292969 C 192.636719 47.941406 192.265625 47.488281 192.367188 47.207031 C 192.488281 46.863281 192.9375 46.691406 193.078125 46.429688 C 193.253906 46.109375 193.53125 45.957031 193.730469 45.734375 C 193.964844 45.46875 193.964844 44.992188 194.222656 44.820312 C 194.503906 44.636719 194.773438 44.40625 195.070312 44.265625 C 195.363281 44.128906 195.761719 44.214844 196.0625 44.058594 C 196.339844 43.914062 196.53125 43.628906 196.808594 43.414062 C 197.050781 43.230469 197.398438 43.136719 197.632812 42.863281 C 197.878906 42.574219 197.984375 42.15625 198.230469 41.933594 C 198.53125 41.660156 199.039062 41.6875 199.273438 41.484375 C 199.660156 41.144531 199.976562 40.714844 199.902344 40.457031 C 199.808594 40.121094 199.347656 39.890625 199.308594 39.601562 C 199.261719 39.25 199.6875 38.921875 199.710938 38.636719 C 199.738281 38.285156 199.625 37.972656 199.742188 37.703125 C 199.871094 37.398438 199.980469 37.085938 200.195312 36.855469 C 200.40625 36.625 200.796875 36.601562 201.0625 36.414062 C 201.320312 36.234375 201.40625 35.78125 201.6875 35.617188 C 201.960938 35.457031 202.207031 35.253906 202.480469 35.085938 C 202.75 34.917969 203.226562 35.050781 203.476562 34.851562 C 203.722656 34.652344 203.78125 34.253906 203.984375 34.003906 C 204.183594 33.765625 204.566406 33.625 204.703125 33.320312 C 204.882812 32.921875 204.949219 32.675781 205.191406 32.632812 C 205.433594 32.589844 205.738281 32.648438 206.09375 32.777344 C 206.34375 32.867188 206.550781 33.234375 206.875 33.332031 C 207.144531 33.410156 207.492188 33.335938 207.820312 33.378906 C 208.097656 33.417969 208.410156 33.339844 208.738281 33.332031 C 209.019531 33.324219 209.367188 33.574219 209.6875 33.519531 C 209.96875 33.46875 210.265625 33.300781 210.578125 33.203125 C 210.847656 33.121094 211.019531 32.707031 211.320312 32.582031 C 211.585938 32.46875 211.863281 32.375 212.148438 32.226562 C 212.40625 32.09375 212.605469 31.855469 212.878906 31.691406 C 213.160156 31.523438 213.601562 31.644531 213.902344 31.519531 C 214.199219 31.390625 214.429688 31.046875 214.742188 30.953125 C 215.050781 30.859375 215.421875 30.957031 215.742188 30.890625 C 216.058594 30.828125 216.417969 31.050781 216.742188 31.003906 C 217.0625 30.960938 217.371094 30.890625 217.695312 30.863281 C 218.019531 30.832031 218.324219 30.605469 218.648438 30.589844 C 218.972656 30.570312 219.292969 30.375 219.613281 30.359375 C 219.941406 30.347656 220.269531 30.371094 220.589844 30.355469 C 220.921875 30.339844 221.242188 30.28125 221.5625 30.257812 C 221.890625 30.238281 222.222656 30.332031 222.539062 30.296875 C 222.871094 30.261719 223.164062 30.074219 223.476562 30.019531 C 223.804688 29.957031 224.117188 29.953125 224.421875 29.859375 C 224.738281 29.761719 225.15625 29.917969 225.4375 29.773438 C 225.789062 29.597656 226.074219 29.570312 226.367188 29.519531 C 226.75 29.449219 226.957031 29.472656 227.246094 29.578125 C 227.570312 29.695312 227.933594 29.667969 228.160156 29.9375 C 228.371094 30.1875 228.535156 30.496094 228.675781 30.820312 C 228.8125 31.132812 228.707031 31.519531 228.796875 31.847656 C 228.890625 32.195312 229.171875 32.484375 229.226562 32.796875 C 229.300781 33.214844 229.199219 33.523438 229.242188 33.753906 C 229.019531 34.039062 228.972656 34.3125 228.824219 34.503906 C 228.511719 34.902344 228.15625 35.082031 228.125 35.207031 C 228.078125 35.410156 228.578125 35.429688 229.113281 35.546875 C 229.351562 35.597656 229.636719 35.683594 229.964844 35.820312 C 230.207031 35.925781 230.390625 36.191406 230.675781 36.375 C 230.902344 36.519531 231.214844 36.578125 231.46875 36.789062 C 231.679688 36.964844 231.996094 37.070312 232.222656 37.304688 C 232.449219 37.535156 232.890625 37.761719 233.21875 37.691406 C 233.582031 37.609375 233.902344 37.320312 234.171875 37.335938 C 234.523438 37.359375 234.757812 37.769531 235.023438 37.910156 C 235.292969 38.054688 235.589844 38.15625 235.847656 38.371094 C 236.074219 38.558594 236.371094 38.683594 236.644531 38.886719 C 236.878906 39.0625 237.101562 39.273438 237.40625 39.4375 C 237.660156 39.574219 237.855469 39.933594 238.183594 40.050781 C 238.457031 40.148438 238.859375 39.902344 239.195312 39.976562 C 239.480469 40.042969 239.742188 40.363281 240.082031 40.402344 C 240.378906 40.441406 240.5625 40.179688 240.902344 40.195312 C 240.980469 39.851562 241.320312 39.71875 241.402344 39.390625 C 241.492188 39.035156 241.351562 38.613281 241.488281 38.316406 C 241.640625 37.988281 242.089844 37.925781 242.355469 37.707031 C 242.601562 37.503906 242.742188 37.042969 243.128906 36.964844 C 243.425781 36.90625 243.785156 37.183594 244.1875 37.214844 C 244.457031 37.234375 244.792969 37.042969 245.121094 37.074219 C 245.421875 37.105469 245.6875 37.433594 245.988281 37.488281 C 246.304688 37.542969 246.742188 37.152344 247.011719 37.253906 C 247.328125 37.375 247.59375 37.703125 247.769531 37.917969 C 247.988281 38.191406 248.25 38.3125 248.488281 38.488281 C 248.761719 38.683594 248.84375 39.203125 249.136719 39.308594 C 249.433594 39.414062 249.835938 39.15625 250.160156 39.203125 C 250.464844 39.246094 250.769531 39.34375 251.097656 39.371094 C 251.40625 39.390625 251.726562 39.40625 252.054688 39.4375 C 252.363281 39.464844 252.683594 39.523438 253.007812 39.582031 C 253.3125 39.640625 253.636719 39.683594 253.953125 39.785156 C 254.398438 39.925781 254.707031 40.28125 254.953125 40.273438 C 255.414062 40.253906 255.644531 39.914062 255.945312 39.816406 C 256.359375 39.683594 256.644531 39.332031 256.917969 39.3125 C 257.375 39.28125 257.78125 39.335938 258.046875 39.453125 C 258.347656 39.585938 258.511719 39.957031 258.933594 39.984375 C 259.195312 40.003906 259.515625 39.953125 259.953125 39.828125 C 260.265625 39.738281 260.585938 39.828125 260.871094 39.804688 C 261.199219 39.773438 261.496094 39.644531 261.777344 39.695312 C 262.101562 39.75 262.429688 39.808594 262.671875 39.957031 C 262.941406 40.121094 263.199219 40.363281 263.347656 40.625 C 263.492188 40.878906 263.382812 41.222656 263.390625 41.550781 C 263.394531 41.828125 263.445312 42.121094 263.339844 42.445312 C 263.230469 42.777344 262.894531 42.960938 262.78125 43.207031 C 262.625 43.539062 262.863281 44.027344 262.710938 44.234375 C 262.476562 44.558594 262.019531 44.542969 261.832031 44.691406 C 261.511719 44.9375 261.3125 45.136719 261.3125 45.484375 C 261.3125 45.683594 261.4375 45.957031 261.597656 46.378906 C 261.6875 46.613281 261.601562 46.984375 261.753906 47.324219 C 261.863281 47.574219 262.113281 47.800781 262.257812 48.117188 C 262.378906 48.371094 262.566406 48.625 262.710938 48.929688 C 262.835938 49.191406 263.023438 49.445312 263.164062 49.742188 C 263.289062 50.007812 263.457031 50.269531 263.597656 50.566406 C 263.722656 50.832031 263.953125 51.066406 264.09375 51.359375 C 264.222656 51.628906 264.152344 52.003906 264.292969 52.296875 C 264.421875 52.566406 264.640625 52.804688 264.777344 53.097656 C 264.917969 53.390625 264.945312 53.730469 265.054688 54.039062 C 265.164062 54.34375 265.285156 54.644531 265.386719 54.953125 C 265.488281 55.261719 265.5 55.609375 265.617188 55.914062 C 265.734375 56.214844 266.03125 56.441406 266.1875 56.730469 C 266.339844 57.011719 266.398438 57.367188 266.609375 57.625 C 266.75 57.796875 266.929688 57.984375 266.929688 58.199219 C 266.929688 58.554688 267.050781 58.871094 267.117188 59.179688 C 267.195312 59.519531 267.160156 59.886719 267.300781 60.179688 C 267.449219 60.492188 267.796875 60.675781 267.988281 60.9375 C 268.191406 61.21875 268.277344 61.578125 268.496094 61.8125 C 268.738281 62.078125 269.117188 62.183594 269.328125 62.40625 C 269.59375 62.6875 269.921875 62.925781 270.054688 63.171875 C 270.210938 63.457031 270.257812 63.792969 270.425781 64.0625 C 270.601562 64.339844 270.570312 64.773438 270.773438 65.015625 C 270.984375 65.265625 271.214844 65.550781 271.46875 65.746094 C 271.722656 65.941406 272.179688 65.804688 272.488281 65.933594 C 272.769531 66.046875 273.003906 66.304688 273.347656 66.351562 C 273.5625 66.613281 273.75 66.90625 274.011719 67.128906 C 274.269531 67.347656 274.792969 67.277344 275.039062 67.511719 C 275.285156 67.746094 275.542969 68.058594 275.714844 68.355469 C 275.871094 68.632812 275.664062 69.070312 275.707031 69.445312 C 275.746094 69.765625 275.867188 70.089844 276.007812 70.304688 C 276.171875 70.550781 276.484375 70.707031 276.769531 70.792969 C 277.015625 70.863281 277.347656 70.980469 277.667969 70.917969 C 277.960938 70.859375 278.222656 70.65625 278.515625 70.617188 C 278.808594 70.578125 279.121094 70.699219 279.417969 70.667969 C 279.714844 70.636719 279.992188 70.445312 280.285156 70.410156 C 280.582031 70.371094 280.84375 70.164062 281.136719 70.109375 C 281.425781 70.058594 281.765625 70.226562 282.054688 70.140625 C 282.335938 70.0625 282.5625 69.816406 282.839844 69.699219 C 283.085938 69.589844 283.417969 69.375 283.804688 69.265625 C 284.125 69.175781 284.507812 69.171875 284.855469 69.128906 C 285.214844 69.085938 285.621094 68.980469 285.9375 69.042969 C 286.304688 69.113281 286.695312 69.382812 286.886719 69.671875 C 287.105469 70.003906 286.84375 70.363281 286.792969 70.695312 C 286.75 70.984375 286.988281 71.414062 286.792969 71.761719 Z M 285.78125 106.128906 C 285.652344 105.839844 285.503906 105.53125 285.355469 105.277344 C 285.175781 104.96875 284.675781 104.90625 284.527344 104.710938 C 284.292969 104.398438 284.160156 104.105469 283.960938 103.925781 C 283.628906 103.628906 283.351562 103.339844 283.09375 103.382812 C 282.824219 103.425781 282.789062 103.890625 282.570312 104.25 C 282.425781 104.488281 282.269531 104.738281 282.132812 105.089844 C 282.027344 105.371094 281.664062 105.589844 281.558594 105.929688 C 281.460938 106.25 281.234375 106.4375 281.078125 106.691406 C 280.90625 106.964844 280.808594 107.226562 280.589844 107.4375 C 280.359375 107.652344 280.234375 107.988281 279.972656 108.15625 C 279.710938 108.324219 279.355469 108.324219 279.074219 108.460938 C 278.789062 108.597656 278.582031 108.902344 278.300781 109.023438 C 278.003906 109.148438 277.652344 109.125 277.378906 109.253906 C 277.082031 109.394531 276.84375 109.617188 276.601562 109.785156 C 276.332031 109.972656 276.1875 110.226562 276.03125 110.488281 C 275.882812 110.738281 275.667969 110.976562 275.667969 111.328125 C 275.667969 111.597656 275.890625 111.859375 275.996094 112.207031 C 276.078125 112.46875 276.09375 112.78125 276.246094 113.097656 C 276.40625 113.429688 276.519531 113.726562 276.558594 113.988281 C 276.609375 114.335938 276.464844 114.621094 276.359375 114.890625 C 276.253906 115.175781 275.914062 115.300781 275.730469 115.5625 C 275.5625 115.808594 275.792969 116.3125 275.640625 116.597656 C 275.503906 116.855469 275.144531 117.023438 275.082031 117.351562 C 275.027344 117.625 275.285156 117.917969 275.316406 118.269531 C 275.339844 118.542969 275.078125 118.890625 275.171875 119.222656 C 275.257812 119.539062 275.179688 119.875 275.25 120.15625 C 275.332031 120.476562 275.617188 120.726562 275.679688 121.007812 C 275.757812 121.332031 275.796875 121.640625 275.871094 121.914062 C 275.957031 122.25 276.039062 122.554688 276.144531 122.8125 C 276.273438 123.128906 276.4375 123.410156 276.640625 123.613281 C 276.847656 123.824219 277.113281 124.070312 277.449219 124.15625 C 277.707031 124.222656 278.046875 123.996094 278.40625 123.992188 C 278.765625 123.988281 279.058594 123.992188 279.320312 123.949219 C 279.679688 123.890625 279.980469 123.890625 280.207031 123.738281 C 280.453125 123.570312 280.46875 123.25 280.621094 122.9375 C 280.738281 122.695312 281.171875 122.539062 281.273438 122.195312 C 281.351562 121.929688 281.441406 121.625 281.523438 121.289062 C 281.59375 121.015625 281.667969 120.714844 281.75 120.386719 C 281.824219 120.105469 281.515625 119.707031 281.601562 119.382812 C 281.679688 119.101562 282.105469 118.898438 282.199219 118.582031 C 282.28125 118.300781 282.421875 118.023438 282.519531 117.710938 C 282.609375 117.425781 282.605469 117.105469 282.710938 116.796875 C 282.808594 116.515625 282.980469 116.25 283.09375 115.945312 C 283.207031 115.628906 283.230469 115.300781 283.332031 115.015625 C 283.441406 114.695312 283.398438 114.34375 283.492188 114.0625 C 283.597656 113.734375 283.921875 113.503906 284.011719 113.222656 C 284.113281 112.890625 284.046875 112.535156 284.125 112.257812 C 284.226562 111.914062 284.152344 111.566406 284.21875 111.300781 C 284.316406 110.925781 284.539062 110.660156 284.59375 110.410156 C 284.691406 109.96875 284.59375 109.636719 284.664062 109.429688 C 284.773438 109.128906 285.035156 108.992188 285.402344 108.730469 C 285.675781 108.539062 285.738281 108.296875 285.796875 107.992188 C 285.851562 107.710938 285.820312 107.449219 285.746094 107.125 C 285.683594 106.835938 285.90625 106.417969 285.78125 106.128906 Z M 285.78125 106.128906 " fill-opacity="1" fill-rule="nonzero"/></g><path fill="#53900f" d="M 283.640625 106.449219 C 282.726562 106.246094 282.257812 109.410156 279.964844 109.957031 C 279.703125 110.019531 279.566406 110.316406 278.96875 110.574219 C 278.066406 110.960938 277.402344 110.566406 277.722656 112.167969 C 277.796875 112.515625 279.007812 114.488281 277.503906 116.203125 C 277.28125 116.457031 277.457031 116.785156 277.128906 117.394531 C 276.765625 118.089844 277.195312 117.984375 276.902344 119.011719 C 276.734375 119.597656 277.199219 120.058594 277.328125 120.621094 C 277.738281 122.390625 277.492188 122.3125 278.75 122.296875 C 279.171875 122.289062 279.132812 121.96875 279.636719 121.5 C 280.285156 120.898438 279.363281 119.160156 280.59375 117.902344 C 280.742188 117.75 281.679688 114.863281 281.726562 114.445312 C 281.875 112.828125 282.371094 112.941406 282.394531 112.472656 C 282.503906 110.300781 282.949219 110.238281 282.949219 109.839844 C 282.949219 109.519531 282.941406 109.230469 283.070312 108.867188 C 283.4375 107.828125 284.125 107.824219 284.0625 107.28125 C 284.03125 107.027344 284.117188 106.554688 283.640625 106.449219 Z M 283.640625 106.449219 " fill-opacity="1" fill-rule="nonzero"/><path fill="#53900f" d="M 283.386719 73.390625 C 283.085938 73.9375 283.109375 74.335938 282.976562 74.519531 C 281.417969 76.660156 283.605469 74.472656 280.351562 79.242188 C 279.46875 80.527344 280.785156 79.953125 278.433594 81.371094 C 277.648438 81.839844 277.664062 81.988281 277.453125 82.09375 C 277.164062 82.234375 276.976562 82.34375 276.84375 82.414062 C 276.832031 82.433594 276.824219 82.453125 276.808594 82.46875 C 276.703125 82.585938 276.542969 82.648438 276.386719 82.648438 C 276.367188 82.648438 276.347656 82.644531 276.320312 82.644531 C 275.742188 82.882812 275.378906 83.1875 275 83.699219 C 273.929688 85.121094 271.738281 86.171875 270.84375 88.148438 C 270.257812 89.390625 269.65625 89.308594 269.375 90.464844 C 269.292969 90.800781 268.972656 90.800781 268.640625 91.359375 C 268.261719 91.992188 268.464844 92.3125 268.171875 92.558594 C 265.859375 94.496094 268.867188 98.75 270.042969 106.34375 C 270.097656 106.691406 269.773438 106.839844 269.667969 107.503906 C 269.621094 107.832031 269.695312 107.996094 269.503906 108.203125 C 269.167969 108.554688 269.273438 108.667969 268.863281 108.769531 C 268.117188 108.953125 267.90625 109.378906 267.601562 109.429688 C 266.78125 109.558594 266.164062 110.007812 265.78125 110.859375 C 265.675781 111.105469 265.175781 111.308594 264.738281 112.085938 C 264.496094 112.511719 263.882812 112.421875 263.265625 112.796875 C 261.960938 113.59375 260.964844 116.039062 261.804688 117.320312 C 261.941406 117.527344 262.210938 118.707031 262.289062 118.902344 C 263.019531 120.75 263.058594 120.097656 262.664062 121.171875 C 262.199219 122.496094 259.972656 120.789062 259.371094 124.179688 C 258.710938 127.867188 259.371094 126.539062 258.3125 127.835938 C 258.113281 128.082031 257.527344 129.054688 257.394531 129.460938 C 257.300781 129.75 257.03125 129.769531 256.671875 130.210938 C 256.320312 130.644531 256.386719 130.871094 256.09375 131.011719 C 255.6875 131.207031 254.515625 132.222656 254.480469 132.257812 C 254.304688 132.425781 253.765625 132.496094 253.207031 133 C 252.726562 133.4375 252.636719 133.890625 252.464844 134.039062 C 251.25 135.113281 251.808594 134.320312 250.707031 134.800781 C 249.917969 135.140625 250.15625 135.46875 249.378906 135.414062 C 247.40625 135.269531 245.851562 136.417969 245.257812 136.53125 C 243.757812 136.796875 243.894531 137.074219 243.515625 137.039062 C 242.535156 136.945312 242.3125 137.265625 241.964844 137.128906 C 241.097656 136.785156 241.769531 136.316406 240.847656 135.253906 C 240.769531 135.160156 240.535156 134.257812 240.527344 134.222656 C 240.078125 132.425781 238.949219 131.707031 239.070312 131.25 C 239.296875 130.378906 239.128906 128.703125 237.53125 127.660156 C 236.792969 127.171875 237.050781 127.175781 236.777344 126.609375 C 235.367188 123.695312 236.570312 127.761719 235.597656 121.910156 C 235.414062 120.851562 234.578125 116.546875 233.886719 115.71875 C 233.683594 115.476562 233.511719 114.183594 233.269531 113.714844 C 232.84375 112.898438 232.679688 113.28125 233.253906 112.757812 C 232.683594 113.199219 232.953125 113.183594 232.496094 112.507812 C 232.414062 112.386719 232.292969 111.214844 232.351562 111.078125 C 232.597656 110.535156 232.632812 110.050781 232.511719 109.492188 C 232.4375 109.160156 232.726562 108.984375 232.777344 108.328125 C 232.828125 107.617188 232.597656 107.75 232.910156 107.175781 C 233.617188 105.878906 234.367188 105.917969 234.367188 104.203125 C 234.367188 101.320312 233.265625 101.746094 234.414062 101.566406 C 233.363281 101.617188 234.164062 101.222656 234.042969 99.273438 C 234 98.601562 233.707031 98.277344 233.71875 98.027344 C 233.773438 96.289062 232.453125 94.644531 231.996094 93.234375 C 231.417969 91.398438 230.746094 91.808594 229.21875 90.285156 C 228.722656 89.78125 228.304688 89.875 228.269531 89.398438 C 228.203125 88.574219 227.898438 88.339844 227.691406 87.808594 C 226.925781 85.886719 229.457031 85.355469 228.304688 83.082031 C 228.054688 82.59375 228.578125 81.332031 227.972656 80.308594 C 226.496094 77.8125 223.703125 79.070312 223.410156 78.832031 C 222.472656 78.054688 222.742188 77.984375 222.015625 77.367188 C 221.339844 76.789062 218.132812 75.1875 216.148438 76.089844 C 216.113281 76.109375 213.351562 76.507812 211.945312 77.015625 C 211.273438 77.253906 209.652344 78.203125 209.257812 77.957031 C 208.144531 77.269531 206.78125 77.574219 205.6875 78.121094 C 205.027344 78.484375 204.78125 77.996094 203.9375 78.058594 C 203.3125 78.105469 203.171875 78.386719 202.828125 78.261719 C 202.664062 78.203125 199.742188 77.730469 198.699219 76.453125 C 198.503906 76.351562 198.058594 75.261719 197.003906 74.605469 C 195.796875 73.835938 196.367188 73.84375 195.65625 73.023438 C 195.398438 72.734375 195.648438 72.375 195.304688 71.6875 C 195.058594 71.207031 193.636719 69.742188 193.027344 69.445312 C 192.726562 69.296875 192.792969 69.03125 192.421875 68.59375 C 191.683594 67.714844 192.027344 68.792969 191.226562 66.816406 C 191.0625 66.414062 190.0625 64.519531 190.152344 64.164062 C 190.511719 62.726562 192.597656 59.914062 190.519531 56.28125 C 190.265625 55.839844 190.523438 56.488281 191.644531 52.703125 C 191.734375 52.394531 192.070312 52.351562 192.414062 51.777344 C 193.492188 49.980469 193.191406 50.132812 193.410156 49.941406 C 194.765625 48.730469 193.882812 47.585938 194.632812 47.210938 C 194.984375 46.898438 195.21875 46.640625 195.433594 46.148438 C 195.640625 45.679688 196.0625 45.964844 196.84375 45.558594 C 197.269531 45.335938 197.871094 44.746094 197.878906 44.738281 C 198.566406 44.394531 198.945312 44.015625 199.273438 43.449219 C 199.300781 43.398438 202.136719 42.148438 201.53125 40 C 201.410156 39.566406 201.226562 39.480469 201.316406 39.175781 C 201.632812 38.097656 200.972656 38.542969 202.03125 37.796875 C 202.570312 37.421875 202.703125 36.980469 202.894531 36.851562 C 203.480469 36.441406 204.539062 36.761719 205.257812 35.210938 C 205.6875 34.289062 206.152344 35.320312 208.503906 35.050781 C 209.015625 34.992188 208.960938 35.539062 210.839844 34.910156 C 211.746094 34.535156 213.53125 33.285156 213.738281 33.269531 C 214.316406 33.214844 214.734375 33.046875 215.164062 32.714844 C 215.648438 32.347656 216.796875 33.09375 218.796875 32.292969 C 219.628906 31.96875 223.808594 31.957031 226.277344 31.253906 C 227.152344 31.007812 227.039062 31.832031 227.164062 32.289062 C 227.375 33.074219 227.769531 33.167969 227.257812 33.683594 C 226.578125 33.683594 225.359375 36.617188 228.453125 37.144531 C 230.453125 37.488281 231.542969 39.796875 233.589844 39.339844 C 234.695312 39.089844 236.695312 41.316406 237.613281 41.640625 C 238.308594 41.890625 238.707031 41.644531 238.992188 41.796875 C 240.5 42.582031 242.5625 41.710938 243.042969 39.804688 C 243.128906 39.476562 243.074219 39.277344 243.316406 39.101562 C 243.425781 39.023438 243.609375 38.839844 243.863281 38.878906 C 244.554688 38.980469 244.710938 38.765625 245.003906 38.914062 C 245.484375 39.15625 245.886719 39.21875 246.328125 39.164062 C 247.046875 39.074219 247.542969 40.535156 248.5625 40.898438 C 249.582031 41.261719 249.34375 40.632812 252.699219 41.246094 C 253.910156 41.460938 253.421875 41.496094 253.59375 41.496094 C 255.230469 42.554688 256.242188 41.523438 256.648438 41.355469 C 258.148438 40.757812 257.675781 42.183594 260.242188 41.503906 C 260.914062 41.320312 261.726562 41.6875 261.363281 42.285156 C 260.984375 42.902344 261.246094 43 260.792969 43.351562 C 257.714844 45.738281 261.816406 49.617188 263.785156 55.492188 C 263.875 55.753906 263.828125 56.519531 264.605469 57.429688 C 264.730469 57.597656 265.28125 58.746094 265.289062 58.78125 C 265.808594 61.953125 266.386719 61.429688 266.703125 62.109375 C 267.539062 63.867188 268.625 63.292969 268.9375 64.917969 C 269.152344 66.042969 270.398438 67.480469 271.800781 67.554688 C 272.246094 67.578125 272.535156 68.09375 272.921875 68.417969 C 273.5 68.90625 274.015625 68.777344 274.011719 69.324219 C 274.003906 71.972656 276.796875 73.160156 278.617188 72.375 C 278.964844 72.226562 279.308594 72.578125 280.503906 72.101562 C 280.542969 72.085938 281.394531 71.824219 281.5625 71.839844 C 283.1875 72.003906 284.316406 70.234375 284.859375 71.117188 C 285.304688 71.839844 283.75 72.734375 283.386719 73.390625 Z M 283.386719 73.390625 " fill-opacity="1" fill-rule="nonzero"/><path fill="#53900f" d="M 282.082031 73.914062 C 282.066406 73.980469 282.113281 74.046875 282.074219 74.105469 C 281.902344 74.34375 281.773438 74.585938 281.671875 74.800781 C 281.59375 74.953125 281.664062 75.15625 281.609375 75.328125 C 281.554688 75.488281 281.496094 75.636719 281.460938 75.8125 C 281.445312 75.878906 281.320312 75.929688 281.28125 75.984375 C 281.167969 76.152344 280.964844 76.257812 280.882812 76.410156 C 280.871094 76.433594 280.859375 76.4375 280.839844 76.457031 C 280.839844 76.46875 280.898438 76.542969 280.898438 76.558594 C 280.847656 76.621094 280.789062 76.796875 280.664062 76.984375 C 280.585938 77.105469 280.433594 77.207031 280.351562 77.363281 C 280.261719 77.542969 280.078125 77.710938 280.003906 77.9375 C 279.980469 78.007812 279.980469 78.039062 279.925781 78.09375 C 279.757812 78.273438 279.585938 78.464844 279.464844 78.644531 C 279.371094 78.785156 279.402344 79.015625 279.320312 79.183594 C 279.25 79.339844 279.097656 79.476562 279.042969 79.652344 C 279 79.78125 278.9375 79.832031 278.816406 79.890625 C 278.632812 79.988281 278.585938 80.285156 278.433594 80.394531 C 278.375 80.4375 278.253906 80.4375 277.976562 80.609375 C 277.875 80.671875 277.808594 80.5625 277.710938 80.625 C 277.527344 80.738281 277.46875 81.023438 277.285156 81.179688 C 277.144531 81.300781 276.886719 81.164062 276.710938 81.105469 C 276.5 81.03125 276.203125 81.023438 275.992188 81.109375 C 275.851562 81.167969 275.683594 81.265625 275.585938 81.375 C 275.488281 81.488281 275.390625 81.664062 275.355469 81.808594 C 275.324219 81.933594 275.285156 81.964844 275.175781 82.035156 C 275.105469 82.078125 275.179688 82.320312 275.113281 82.371094 C 274.96875 82.484375 274.773438 82.546875 274.636719 82.691406 C 274.507812 82.828125 274.457031 83.03125 274.339844 83.191406 C 274.332031 83.199219 274.328125 83.210938 274.320312 83.21875 C 274.304688 83.242188 274.261719 83.28125 274.238281 83.304688 C 274.132812 83.402344 273.886719 83.355469 273.773438 83.460938 C 273.667969 83.558594 273.710938 83.816406 273.597656 83.921875 C 273.492188 84.03125 273.238281 84.027344 273.105469 84.164062 C 272.988281 84.28125 272.824219 84.375 272.703125 84.511719 C 272.664062 84.554688 272.746094 84.722656 272.636719 84.832031 C 272.578125 84.894531 272.40625 84.863281 272.328125 84.945312 C 272.292969 84.980469 272.300781 85.058594 272.261719 85.082031 C 272.101562 85.175781 271.929688 85.339844 271.730469 85.507812 C 271.566406 85.644531 271.472656 85.855469 271.324219 86.039062 C 271.316406 86.046875 271.125 85.941406 270.992188 86.082031 C 270.875 86.210938 270.839844 86.558594 270.652344 86.804688 C 270.539062 86.953125 270.351562 87.03125 270.269531 87.167969 C 270.152344 87.375 270.039062 87.535156 270 87.609375 C 269.992188 87.640625 269.890625 87.664062 269.875 87.683594 C 269.722656 87.917969 269.667969 88.179688 269.617188 88.28125 C 269.589844 88.332031 269.589844 88.398438 269.546875 88.4375 C 269.417969 88.554688 269.300781 88.6875 269.195312 88.8125 C 269.078125 88.945312 268.902344 89.042969 268.816406 89.179688 C 268.671875 89.402344 268.660156 89.710938 268.574219 89.984375 C 268.546875 90.066406 268.394531 90.066406 268.328125 90.125 C 268.21875 90.226562 268.203125 90.425781 268.113281 90.535156 C 268.015625 90.648438 267.871094 90.730469 267.796875 90.851562 C 267.710938 90.992188 267.660156 91.15625 267.597656 91.316406 C 267.539062 91.46875 267.449219 91.621094 267.417969 91.789062 C 267.394531 91.878906 267.441406 92.019531 267.371094 92.089844 C 267.316406 92.144531 267.28125 92.210938 267.234375 92.273438 C 267.113281 92.425781 266.855469 92.484375 266.757812 92.660156 C 266.664062 92.824219 266.71875 93.066406 266.648438 93.25 C 266.582031 93.429688 266.496094 93.605469 266.449219 93.792969 C 266.410156 93.980469 266.46875 94.179688 266.449219 94.375 C 266.429688 94.566406 266.222656 94.753906 266.230469 94.949219 C 266.238281 95.109375 266.300781 95.335938 266.359375 95.601562 C 266.402344 95.785156 266.402344 96.027344 266.488281 96.257812 C 266.492188 96.261719 266.515625 96.285156 266.519531 96.292969 C 266.53125 96.328125 266.71875 96.324219 266.722656 96.359375 C 266.722656 96.390625 266.546875 96.410156 266.546875 96.441406 C 266.558594 96.558594 266.789062 96.691406 266.820312 96.875 C 266.84375 97.019531 266.75 97.195312 266.785156 97.355469 C 266.824219 97.511719 266.925781 97.640625 266.96875 97.769531 C 267.039062 97.960938 267.125 98.097656 267.15625 98.175781 C 267.167969 98.191406 267.027344 98.253906 267.035156 98.269531 C 267.054688 98.3125 267.207031 98.328125 267.214844 98.375 C 267.214844 98.378906 267.234375 98.421875 267.234375 98.433594 C 267.234375 98.4375 267.074219 98.449219 267.074219 98.453125 C 267.097656 98.628906 267.289062 98.917969 267.386719 99.261719 C 267.433594 99.433594 267.402344 99.648438 267.484375 99.832031 C 267.519531 99.902344 267.554688 99.96875 267.546875 100.054688 C 267.539062 100.234375 267.660156 100.414062 267.679688 100.585938 C 267.695312 100.773438 267.757812 100.925781 267.808594 101.09375 C 267.851562 101.257812 267.863281 101.421875 267.933594 101.589844 C 268.003906 101.742188 268.101562 101.875 268.191406 102.027344 C 268.226562 102.085938 268.109375 102.210938 268.117188 102.277344 C 268.152344 102.496094 268.234375 102.679688 268.28125 102.84375 C 268.34375 103.109375 268.46875 103.339844 268.507812 103.457031 C 268.546875 103.574219 268.628906 103.621094 268.636719 103.648438 C 268.640625 103.664062 268.648438 103.683594 268.652344 103.699219 C 268.667969 103.78125 268.515625 103.929688 268.550781 104.140625 C 268.570312 104.273438 268.589844 104.40625 268.613281 104.535156 C 268.683594 104.898438 268.929688 105.1875 268.972656 105.308594 C 268.984375 105.332031 269.027344 105.320312 269.039062 105.34375 C 269.050781 105.375 269.054688 105.425781 269.0625 105.457031 C 269.078125 105.542969 269.050781 105.550781 269.0625 105.636719 C 269.0625 105.640625 269.046875 105.65625 269.050781 105.667969 C 269.101562 105.988281 269.160156 106.054688 269.160156 106.082031 C 269.164062 106.132812 269.183594 106.128906 269.191406 106.179688 C 269.199219 106.277344 268.972656 106.339844 268.929688 106.425781 C 268.863281 106.570312 268.992188 106.789062 268.941406 106.933594 C 268.894531 107.089844 268.867188 107.226562 268.839844 107.378906 C 268.835938 107.421875 268.652344 107.441406 268.648438 107.484375 C 268.628906 107.683594 268.558594 107.855469 268.367188 107.921875 C 268.199219 107.980469 268.007812 108.011719 267.847656 108.097656 C 267.691406 108.183594 267.578125 108.34375 267.433594 108.457031 C 267.375 108.503906 267.300781 108.550781 267.226562 108.566406 C 267.058594 108.605469 266.894531 108.625 266.742188 108.679688 C 266.585938 108.742188 266.441406 108.824219 266.296875 108.902344 C 266.152344 108.984375 265.972656 109.023438 265.84375 109.128906 C 265.652344 109.289062 265.550781 109.535156 265.414062 109.710938 C 265.246094 109.925781 265.0625 110.105469 264.972656 110.277344 C 264.941406 110.335938 264.847656 110.3125 264.800781 110.351562 C 264.632812 110.503906 264.664062 110.832031 264.535156 110.976562 C 264.410156 111.113281 264.148438 111.160156 264.027344 111.339844 C 263.960938 111.445312 263.890625 111.558594 263.765625 111.589844 C 263.589844 111.636719 263.433594 111.734375 263.269531 111.800781 C 263.097656 111.867188 262.949219 111.953125 262.800781 112.042969 C 262.644531 112.136719 262.441406 112.167969 262.300781 112.289062 C 262.160156 112.40625 261.960938 112.484375 261.835938 112.625 C 261.71875 112.761719 261.800781 113.0625 261.691406 113.21875 C 261.679688 113.234375 261.578125 113.183594 261.566406 113.195312 C 261.550781 113.214844 261.542969 113.207031 261.53125 113.226562 C 261.53125 113.234375 261.542969 113.25 261.542969 113.253906 C 261.507812 113.238281 261.46875 113.222656 261.457031 113.222656 C 261.457031 113.226562 261.476562 113.246094 261.476562 113.253906 C 261.464844 113.273438 261.363281 113.25 261.355469 113.269531 C 261.320312 113.335938 261.34375 113.410156 261.289062 113.453125 C 261.164062 113.621094 261.03125 113.796875 260.949219 113.972656 C 260.855469 114.167969 260.789062 114.371094 260.742188 114.554688 C 260.679688 114.769531 260.617188 114.980469 260.601562 115.15625 C 260.597656 115.1875 260.558594 115.191406 260.550781 115.21875 C 260.5 115.402344 260.601562 115.621094 260.578125 115.804688 C 260.550781 115.996094 260.449219 116.1875 260.453125 116.371094 C 260.460938 116.558594 260.476562 116.765625 260.519531 116.945312 C 260.589844 117.226562 260.785156 117.472656 260.933594 117.722656 C 260.953125 117.761719 261.007812 117.792969 261.023438 117.832031 C 261.066406 117.996094 261.027344 118.1875 261.085938 118.335938 C 261.101562 118.367188 261.210938 118.371094 261.21875 118.414062 C 261.269531 118.714844 261.234375 119.035156 261.332031 119.28125 C 261.402344 119.464844 261.585938 119.636719 261.703125 119.847656 C 261.722656 119.878906 261.675781 119.933594 261.6875 119.96875 C 261.71875 120.058594 261.847656 120.105469 261.878906 120.179688 C 261.9375 120.335938 261.96875 120.609375 261.875 120.746094 C 261.78125 120.886719 261.515625 120.929688 261.347656 120.933594 C 261.152344 120.9375 260.957031 120.953125 260.761719 121.003906 C 260.570312 121.050781 260.414062 121.171875 260.234375 121.261719 C 260.050781 121.351562 259.878906 121.4375 259.722656 121.570312 C 259.566406 121.703125 259.484375 121.878906 259.363281 122.046875 C 259.253906 122.191406 259.0625 122.277344 258.972656 122.445312 C 258.886719 122.605469 258.691406 122.722656 258.621094 122.898438 C 258.554688 123.066406 258.566406 123.273438 258.515625 123.457031 C 258.46875 123.628906 258.472656 123.820312 258.441406 124.007812 C 258.441406 124.011719 258.480469 124.019531 258.480469 124.023438 C 258.472656 124.058594 258.476562 124.117188 258.457031 124.210938 C 258.425781 124.332031 258.234375 124.492188 258.195312 124.710938 C 258.164062 124.878906 258.183594 125.070312 258.167969 125.261719 C 258.167969 125.285156 258.226562 125.316406 258.21875 125.335938 C 258.207031 125.414062 258.09375 125.394531 258.082031 125.472656 C 258.082031 125.480469 258.183594 125.496094 258.179688 125.503906 C 258.148438 125.679688 258.230469 125.964844 258.210938 126.253906 C 258.203125 126.328125 258.023438 126.390625 258.023438 126.457031 C 258.019531 126.578125 258.023438 126.695312 257.941406 126.785156 C 257.847656 126.902344 257.832031 127.0625 257.761719 127.152344 C 257.75 127.167969 257.738281 127.167969 257.726562 127.183594 C 257.722656 127.1875 257.679688 127.183594 257.679688 127.1875 C 257.648438 127.226562 257.554688 127.148438 257.519531 127.183594 C 257.410156 127.324219 257.257812 127.441406 257.179688 127.570312 C 257.058594 127.761719 257.078125 127.992188 257.035156 128.070312 C 257.035156 128.078125 256.9375 128.039062 256.933594 128.046875 C 256.914062 128.085938 257 128.128906 256.976562 128.171875 C 256.96875 128.191406 257.03125 128.257812 257.019531 128.273438 C 256.875 128.480469 256.601562 128.625 256.496094 128.875 C 256.464844 128.953125 256.488281 129.042969 256.421875 129.097656 C 256.230469 129.253906 256.101562 129.460938 255.957031 129.636719 C 255.839844 129.78125 255.703125 129.925781 255.609375 130.097656 C 255.5625 130.179688 255.488281 130.234375 255.410156 130.28125 C 255.230469 130.386719 255.085938 130.53125 254.9375 130.660156 C 254.859375 130.726562 254.703125 130.703125 254.652344 130.75 C 254.484375 130.902344 254.535156 131.066406 254.519531 131.078125 C 254.511719 131.082031 254.542969 131.164062 254.53125 131.171875 C 254.375 131.269531 254.148438 131.316406 253.976562 131.472656 C 253.929688 131.511719 253.886719 131.605469 253.828125 131.628906 C 253.601562 131.722656 253.304688 131.667969 253.101562 131.789062 C 252.886719 131.917969 252.816406 132.222656 252.644531 132.378906 C 252.480469 132.527344 252.308594 132.636719 252.191406 132.796875 C 252.042969 132.992188 251.929688 133.164062 251.855469 133.316406 C 251.828125 133.359375 251.757812 133.371094 251.703125 133.390625 C 251.59375 133.292969 251.550781 133.25 251.484375 133.195312 C 251.5 133.273438 251.476562 133.367188 251.511719 133.527344 L 251.5625 133.542969 C 251.558594 133.550781 251.558594 133.558594 251.554688 133.5625 C 251.476562 133.628906 251.382812 133.710938 251.277344 133.71875 C 251.105469 133.738281 250.949219 133.757812 250.796875 133.796875 C 250.632812 133.839844 250.5 133.9375 250.355469 134 C 250.121094 134.101562 249.941406 134.277344 249.71875 134.449219 C 249.617188 134.53125 249.417969 134.332031 249.296875 134.324219 C 249.113281 134.316406 248.921875 134.347656 248.75 134.351562 C 248.5625 134.363281 248.390625 134.480469 248.222656 134.511719 C 248.199219 134.515625 248.207031 134.566406 248.183594 134.566406 C 248.019531 134.597656 247.792969 134.574219 247.550781 134.628906 C 247.355469 134.671875 247.148438 134.730469 246.9375 134.796875 C 246.605469 134.902344 246.347656 135.15625 246.199219 135.222656 C 245.996094 135.3125 245.875 135.160156 245.84375 135.171875 C 245.609375 135.261719 245.347656 135.3125 245.226562 135.371094 C 245.136719 135.414062 245.253906 135.664062 245.160156 135.707031 C 245.117188 135.722656 245.007812 135.566406 244.960938 135.574219 C 244.859375 135.59375 244.710938 135.679688 244.53125 135.71875 C 244.398438 135.753906 244.230469 135.738281 244.078125 135.789062 C 243.921875 135.839844 243.773438 135.960938 243.601562 136.042969 C 243.527344 136.078125 243.441406 135.996094 243.351562 135.992188 C 243.15625 135.984375 242.960938 136.140625 242.773438 136.160156 C 242.757812 136.160156 242.734375 136.074219 242.714844 136.074219 C 242.5 136.074219 242.355469 135.941406 242.285156 135.730469 C 242.226562 135.5625 242.03125 135.457031 241.941406 135.292969 C 241.859375 135.140625 241.925781 134.878906 241.8125 134.730469 C 241.765625 134.671875 241.695312 134.667969 241.679688 134.59375 C 241.640625 134.414062 241.59375 134.234375 241.539062 134.082031 C 241.535156 134.070312 241.414062 134.089844 241.414062 134.078125 C 241.402344 134.035156 241.390625 134.039062 241.382812 133.996094 C 241.382812 133.988281 241.375 133.953125 241.371094 133.941406 C 241.3125 133.695312 241.171875 133.519531 241.089844 133.332031 C 240.988281 133.074219 240.988281 132.824219 240.898438 132.683594 C 240.886719 132.664062 241.007812 132.589844 241 132.566406 C 240.988281 132.546875 240.714844 132.601562 240.65625 132.476562 C 240.65625 132.460938 240.882812 132.332031 240.882812 132.324219 C 240.84375 132.242188 240.753906 132.101562 240.671875 131.949219 C 240.566406 131.75 240.292969 131.652344 240.140625 131.460938 C 240.050781 131.351562 240.023438 131.167969 240.046875 131.027344 C 240.074219 130.824219 239.976562 130.636719 239.96875 130.445312 C 239.960938 130.242188 240.046875 130.046875 240 129.859375 C 240 129.847656 240.105469 129.8125 240.105469 129.800781 C 240.09375 129.75 239.902344 129.78125 239.894531 129.730469 C 239.859375 129.511719 239.9375 129.285156 239.886719 129.105469 C 239.820312 128.886719 239.789062 128.671875 239.714844 128.503906 C 239.609375 128.28125 239.53125 128.070312 239.4375 127.933594 C 239.332031 127.777344 239.117188 127.703125 238.996094 127.578125 C 238.863281 127.4375 238.722656 127.3125 238.597656 127.214844 C 238.410156 127.070312 238.203125 127.042969 238.101562 126.988281 C 238.074219 126.972656 238.078125 126.871094 238.050781 126.847656 C 238.019531 126.816406 238.015625 126.75 237.980469 126.722656 C 237.902344 126.660156 237.914062 126.585938 237.878906 126.488281 C 237.839844 126.375 237.804688 126.242188 237.75 126.136719 C 237.6875 125.996094 237.445312 125.941406 237.355469 125.804688 C 237.269531 125.671875 237.230469 125.503906 237.121094 125.378906 C 237.085938 125.335938 237.0625 125.300781 237.042969 125.25 C 237.019531 125.183594 237.082031 125.070312 237.082031 125 C 237.082031 124.785156 236.925781 124.574219 236.894531 124.363281 C 236.890625 124.328125 236.792969 124.28125 236.796875 124.246094 C 236.808594 124.042969 236.929688 123.859375 236.917969 123.679688 C 236.90625 123.480469 236.824219 123.304688 236.785156 123.121094 C 236.742188 122.925781 236.863281 122.695312 236.832031 122.578125 C 236.761719 122.320312 236.691406 122.265625 236.683594 122.214844 C 236.660156 122.109375 236.519531 122.003906 236.488281 121.820312 C 236.488281 121.820312 236.433594 121.835938 236.421875 121.835938 C 236.417969 121.820312 236.578125 121.765625 236.574219 121.746094 C 236.554688 121.609375 236.609375 121.445312 236.582031 121.296875 C 236.542969 121.113281 236.335938 120.96875 236.304688 120.824219 C 236.269531 120.652344 236.242188 120.519531 236.21875 120.398438 C 236.207031 120.351562 236.121094 120.296875 236.09375 120.089844 C 236.070312 119.914062 236.164062 119.671875 236.117188 119.429688 C 236.050781 119.097656 236.03125 118.761719 235.988281 118.628906 C 235.949219 118.519531 235.902344 118.476562 235.894531 118.453125 C 235.886719 118.4375 235.777344 118.457031 235.777344 118.441406 C 235.742188 118.28125 235.761719 118.117188 235.722656 117.984375 C 235.652344 117.785156 235.554688 117.640625 235.523438 117.570312 C 235.503906 117.515625 235.554688 117.449219 235.550781 117.390625 C 235.539062 117.21875 235.570312 117.039062 235.546875 116.882812 C 235.515625 116.707031 235.492188 116.527344 235.449219 116.378906 C 235.386719 116.160156 235.125 116.027344 235.03125 115.847656 C 234.917969 115.628906 234.824219 115.433594 234.722656 115.296875 C 234.679688 115.242188 234.808594 115.125 234.789062 115.058594 C 234.746094 114.886719 234.554688 114.753906 234.496094 114.601562 C 234.484375 114.5625 234.460938 114.527344 234.453125 114.492188 C 234.425781 114.304688 234.390625 114.125 234.34375 113.949219 C 234.292969 113.765625 234.226562 113.589844 234.152344 113.429688 C 234.097656 113.3125 234.003906 113.132812 234.042969 113.011719 C 234.09375 112.859375 234.308594 112.707031 234.277344 112.554688 C 234.246094 112.402344 234.035156 112.3125 233.929688 112.1875 C 233.828125 112.070312 233.71875 112.035156 233.578125 111.976562 C 233.40625 111.90625 233.410156 111.644531 233.386719 111.460938 C 233.375 111.375 233.179688 111.242188 233.207031 111.164062 C 233.265625 111.007812 233.339844 110.875 233.371094 110.722656 C 233.40625 110.558594 233.523438 110.421875 233.535156 110.261719 C 233.542969 110.039062 233.464844 109.8125 233.425781 109.570312 C 233.417969 109.484375 233.425781 109.363281 233.457031 109.28125 C 233.511719 109.132812 233.574219 108.996094 233.609375 108.847656 C 233.648438 108.691406 233.585938 108.539062 233.597656 108.386719 C 233.609375 108.214844 233.785156 108.039062 233.769531 107.851562 C 233.761719 107.75 233.679688 107.632812 233.726562 107.546875 C 233.785156 107.4375 233.804688 107.324219 233.839844 107.25 C 233.871094 107.179688 233.972656 107.132812 234.03125 107.082031 C 234.191406 106.945312 234.265625 106.730469 234.394531 106.570312 C 234.539062 106.40625 234.65625 106.253906 234.753906 106.078125 C 234.859375 105.886719 235.175781 105.785156 235.246094 105.578125 C 235.316406 105.371094 235.191406 105.109375 235.222656 104.890625 C 235.253906 104.675781 235.300781 104.464844 235.296875 104.238281 C 235.296875 104.21875 235.238281 104.183594 235.242188 104.164062 C 235.265625 103.984375 235.375 103.808594 235.367188 103.625 C 235.359375 103.445312 235.359375 103.253906 235.328125 103.070312 C 235.296875 102.894531 235.191406 102.726562 235.132812 102.550781 C 235.082031 102.398438 235.023438 102.171875 235.109375 102.035156 C 235.234375 101.851562 235.28125 101.707031 235.257812 101.484375 C 235.238281 101.265625 235.175781 101.125 235.023438 100.96875 C 234.921875 100.867188 234.878906 100.652344 234.890625 100.507812 C 234.890625 100.46875 234.808594 100.433594 234.808594 100.394531 C 234.808594 100.382812 234.972656 100.351562 234.988281 100.175781 C 234.996094 100.0625 234.886719 99.890625 234.894531 99.691406 C 234.898438 99.542969 234.984375 99.386719 234.96875 99.214844 C 234.960938 99.003906 234.878906 98.816406 234.835938 98.632812 C 234.78125 98.410156 234.753906 98.203125 234.691406 98.054688 C 234.664062 97.992188 234.546875 97.917969 234.546875 97.851562 C 234.542969 97.691406 234.789062 97.523438 234.773438 97.378906 C 234.753906 97.214844 234.53125 97.09375 234.496094 96.953125 C 234.460938 96.800781 234.625 96.597656 234.585938 96.460938 C 234.535156 96.292969 234.265625 96.210938 234.230469 96.101562 C 234.226562 96.089844 234.242188 96.070312 234.238281 96.058594 C 234.207031 95.960938 234.214844 95.957031 234.179688 95.855469 C 234.121094 95.667969 234.089844 95.472656 233.996094 95.28125 C 233.90625 95.105469 233.785156 94.945312 233.667969 94.773438 C 233.644531 94.738281 233.667969 94.679688 233.65625 94.640625 C 233.652344 94.636719 233.566406 94.664062 233.5625 94.65625 C 233.519531 94.539062 233.601562 94.339844 233.539062 94.1875 C 233.484375 94.058594 233.375 93.9375 233.308594 93.800781 C 233.300781 93.789062 233.402344 93.726562 233.394531 93.710938 C 233.382812 93.679688 233.222656 93.695312 233.1875 93.613281 C 233.128906 93.464844 233.152344 93.152344 233.015625 92.890625 C 233.007812 92.878906 232.796875 92.941406 232.789062 92.925781 C 232.785156 92.910156 232.792969 92.890625 232.789062 92.875 C 232.738281 92.703125 232.742188 92.472656 232.636719 92.246094 C 232.550781 92.0625 232.519531 91.820312 232.390625 91.636719 C 232.265625 91.464844 232.074219 91.359375 231.9375 91.222656 C 231.789062 91.070312 231.648438 90.925781 231.503906 90.816406 C 231.324219 90.675781 231.183594 90.5 231.039062 90.417969 C 230.992188 90.390625 230.925781 90.421875 230.886719 90.378906 C 230.746094 90.21875 230.503906 90.179688 230.355469 90.054688 C 230.179688 89.914062 230.070312 89.714844 229.996094 89.667969 C 229.984375 89.667969 229.949219 89.714844 229.941406 89.714844 C 229.910156 89.695312 229.96875 89.617188 229.9375 89.597656 C 229.910156 89.582031 229.851562 89.589844 229.835938 89.574219 C 229.699219 89.441406 229.539062 89.328125 229.363281 89.214844 C 229.246094 89.140625 229.210938 89 229.183594 88.859375 C 229.152344 88.703125 229.136719 88.527344 229.082031 88.382812 C 229.027344 88.226562 228.996094 88.050781 228.917969 87.914062 C 228.742188 87.585938 228.601562 87.554688 228.566406 87.464844 C 228.554688 87.433594 228.539062 87.441406 228.523438 87.414062 C 228.460938 87.273438 228.472656 87.089844 228.542969 86.949219 C 228.714844 86.617188 228.746094 86.308594 228.777344 86.21875 C 228.789062 86.171875 228.863281 86.136719 228.886719 86.097656 C 228.96875 85.976562 229.148438 85.847656 229.242188 85.636719 C 229.320312 85.472656 229.359375 85.273438 229.417969 85.070312 C 229.46875 84.890625 229.535156 84.703125 229.554688 84.5 C 229.578125 84.304688 229.613281 84.101562 229.601562 83.921875 C 229.578125 83.722656 229.589844 83.507812 229.546875 83.335938 C 229.488281 83.132812 229.183594 83.035156 229.117188 82.886719 C 229.089844 82.824219 229.105469 82.703125 229.101562 82.632812 C 229.101562 82.496094 229.289062 82.496094 229.289062 82.363281 C 229.289062 81.984375 229.265625 81.925781 229.269531 81.894531 C 229.292969 81.757812 229.238281 81.566406 229.234375 81.351562 C 229.230469 81.191406 229.328125 80.988281 229.289062 80.796875 C 229.253906 80.632812 229.019531 80.515625 228.945312 80.335938 C 228.886719 80.179688 228.851562 80.007812 228.753906 79.84375 C 228.699219 79.746094 228.589844 79.585938 228.429688 79.386719 C 228.328125 79.257812 228.332031 78.988281 228.183594 78.84375 C 228.058594 78.71875 227.789062 78.730469 227.628906 78.613281 C 227.484375 78.503906 227.367188 78.335938 227.195312 78.242188 C 227.035156 78.15625 226.828125 78.167969 226.640625 78.105469 C 226.519531 78.0625 226.40625 77.824219 226.210938 77.777344 C 226.058594 77.742188 225.855469 77.863281 225.671875 77.832031 C 225.515625 77.808594 225.347656 77.789062 225.167969 77.78125 C 225.003906 77.773438 224.839844 77.792969 224.664062 77.804688 C 224.476562 77.816406 224.273438 77.761719 224.078125 77.8125 C 223.878906 77.863281 223.605469 77.878906 223.476562 77.710938 C 223.457031 77.683594 223.558594 77.609375 223.539062 77.582031 C 223.460938 77.476562 223.308594 77.292969 223.121094 77.082031 C 222.984375 76.929688 222.734375 76.875 222.558594 76.726562 C 222.429688 76.617188 222.304688 76.519531 222.152344 76.425781 C 222.003906 76.335938 221.898438 76.171875 221.734375 76.101562 C 221.578125 76.027344 221.4375 75.890625 221.265625 75.835938 C 221.21875 75.820312 221.125 75.910156 221.078125 75.882812 C 220.878906 75.746094 220.738281 75.519531 220.542969 75.425781 C 220.328125 75.320312 220.109375 75.199219 219.894531 75.140625 C 219.878906 75.132812 219.785156 75.371094 219.765625 75.363281 C 219.71875 75.347656 219.777344 75.1875 219.730469 75.171875 C 219.710938 75.167969 219.707031 75.183594 219.6875 75.179688 C 219.585938 75.140625 219.402344 74.964844 219.132812 74.898438 C 218.953125 74.859375 218.722656 74.902344 218.507812 74.882812 C 218.488281 74.882812 218.472656 75.019531 218.453125 75.019531 C 218.226562 74.996094 218.007812 74.871094 217.78125 74.867188 C 217.550781 74.867188 217.316406 74.785156 217.09375 74.796875 C 216.890625 74.804688 216.683594 74.878906 216.503906 74.921875 C 216.285156 74.972656 216.109375 75.097656 215.960938 75.152344 C 215.894531 75.175781 215.824219 75.117188 215.753906 75.113281 C 215.574219 75.109375 215.398438 75.167969 215.226562 75.179688 C 215.046875 75.195312 214.855469 75.140625 214.691406 75.175781 C 214.386719 75.25 214.097656 75.339844 213.925781 75.394531 C 213.921875 75.398438 213.910156 75.382812 213.902344 75.382812 C 213.730469 75.441406 213.734375 75.675781 213.679688 75.691406 C 213.675781 75.691406 213.652344 75.628906 213.648438 75.628906 C 213.628906 75.632812 213.625 75.6875 213.613281 75.691406 C 213.53125 75.710938 213.488281 75.496094 213.410156 75.507812 C 213.226562 75.546875 212.984375 75.863281 212.65625 75.972656 C 212.53125 76.015625 212.578125 75.957031 212.382812 76.003906 C 212.21875 76.046875 211.945312 76.109375 211.660156 76.214844 C 211.355469 76.320312 211.074219 76.398438 210.945312 76.460938 C 210.941406 76.464844 210.949219 76.492188 210.941406 76.492188 C 210.851562 76.535156 210.75 76.441406 210.726562 76.453125 C 210.714844 76.460938 210.679688 76.40625 210.664062 76.410156 C 210.382812 76.511719 210.183594 76.707031 210.058594 76.765625 C 209.988281 76.800781 209.960938 76.75 209.886719 76.785156 C 209.867188 76.792969 209.929688 77.007812 209.910156 77.011719 C 209.867188 77.023438 209.792969 76.925781 209.746094 76.945312 C 209.617188 76.996094 209.417969 77.09375 209.289062 77.035156 C 209.085938 76.9375 208.929688 76.753906 208.726562 76.703125 C 208.511719 76.648438 208.296875 76.636719 208.082031 76.625 C 207.882812 76.617188 207.652344 76.480469 207.421875 76.507812 C 207.21875 76.53125 206.992188 76.570312 206.773438 76.621094 C 206.746094 76.628906 206.800781 76.875 206.773438 76.882812 C 206.660156 76.910156 206.585938 76.726562 206.574219 76.726562 C 206.410156 76.75 206.214844 76.878906 205.976562 76.960938 C 205.796875 77.023438 205.632812 77.164062 205.421875 77.273438 C 205.300781 77.335938 205.128906 77.289062 204.996094 77.253906 C 204.8125 77.199219 204.632812 77.09375 204.449219 77.070312 C 204.253906 77.046875 204.054688 77.113281 203.871094 77.128906 C 203.628906 77.144531 203.34375 77.066406 203.09375 77.148438 C 203 77.179688 202.910156 77.390625 202.816406 77.367188 C 202.734375 77.347656 202.683594 77.203125 202.601562 77.191406 C 202.332031 77.140625 202.058594 77.242188 201.972656 77.234375 C 201.90625 77.230469 201.816406 77.203125 201.757812 77.179688 C 201.691406 77.148438 201.722656 77.085938 201.65625 77.054688 C 201.574219 77.015625 201.480469 76.925781 201.363281 76.867188 C 201.152344 76.773438 200.886719 76.773438 200.625 76.695312 C 200.566406 76.679688 200.488281 76.648438 200.4375 76.613281 C 200.351562 76.550781 200.238281 76.527344 200.257812 76.421875 C 200.300781 76.167969 200.726562 76.222656 200.523438 76.058594 C 200.320312 75.898438 200.410156 76.171875 200.21875 76.351562 C 200.144531 76.292969 200.179688 76.214844 200.097656 76.15625 C 199.910156 76.023438 199.632812 76.050781 199.542969 75.996094 C 199.539062 75.996094 199.621094 75.851562 199.613281 75.847656 C 199.585938 75.832031 199.539062 75.90625 199.507812 75.890625 C 199.5 75.886719 199.515625 75.847656 199.515625 75.84375 C 199.472656 75.816406 199.40625 75.824219 199.375 75.789062 C 199.355469 75.765625 199.410156 75.660156 199.390625 75.640625 C 199.375 75.628906 199.382812 75.625 199.367188 75.613281 C 199.363281 75.605469 199.214844 75.746094 199.210938 75.742188 C 199.175781 75.714844 199.230469 75.511719 199.171875 75.476562 C 199.160156 75.476562 199.105469 75.566406 199.09375 75.566406 C 199.089844 75.5625 199.03125 75.6875 199.03125 75.6875 C 198.824219 75.585938 198.910156 75.21875 198.941406 75 C 198.855469 74.867188 198.695312 74.710938 198.59375 74.59375 C 198.492188 74.46875 198.304688 74.425781 198.191406 74.320312 C 197.910156 74.078125 197.660156 73.832031 197.546875 73.761719 C 197.542969 73.757812 197.53125 73.757812 197.527344 73.753906 C 197.503906 73.742188 197.488281 73.765625 197.464844 73.75 C 197.441406 73.734375 197.492188 73.640625 197.472656 73.625 C 197.378906 73.539062 197.167969 73.59375 197.0625 73.519531 C 196.996094 73.46875 197.082031 73.304688 197.046875 73.230469 C 196.964844 73.050781 196.648438 73.011719 196.546875 72.863281 C 196.519531 72.8125 196.632812 72.65625 196.59375 72.609375 C 196.539062 72.535156 196.445312 72.476562 196.433594 72.382812 C 196.414062 72.179688 196.351562 72 196.304688 71.816406 C 196.246094 71.628906 196.253906 71.417969 196.167969 71.25 C 196.09375 71.109375 196.039062 70.9375 195.941406 70.800781 C 195.851562 70.667969 195.710938 70.5625 195.597656 70.4375 C 195.488281 70.316406 195.3125 70.265625 195.1875 70.152344 C 195.164062 70.140625 195.113281 70.160156 195.09375 70.144531 C 195.050781 70.105469 195.070312 70.078125 195.035156 70.042969 C 195.03125 70.046875 195.03125 70.050781 195.027344 70.054688 C 195.027344 70.050781 195.03125 70.042969 195.035156 70.035156 C 195.035156 70.03125 195.035156 70.023438 195.042969 70.015625 C 195.058594 69.988281 195.074219 69.957031 195.074219 69.953125 C 195.070312 69.949219 195.132812 69.871094 195.128906 69.871094 C 195.109375 69.851562 195.027344 69.902344 195.011719 69.886719 C 194.894531 69.757812 194.78125 69.582031 194.621094 69.421875 C 194.488281 69.285156 194.371094 69.09375 194.214844 68.960938 C 194.082031 68.847656 193.878906 68.804688 193.722656 68.710938 C 193.640625 68.660156 193.472656 68.660156 193.429688 68.578125 C 193.324219 68.378906 193.277344 68.148438 193.140625 67.984375 C 193 67.8125 192.851562 67.617188 192.648438 67.46875 C 192.578125 67.410156 192.375 67.414062 192.339844 67.328125 C 192.300781 67.226562 192.472656 67.035156 192.425781 66.941406 C 192.382812 66.859375 192.242188 66.800781 192.105469 66.460938 C 192.101562 66.460938 192.027344 66.488281 192.019531 66.488281 C 191.992188 66.417969 192 66.414062 191.972656 66.339844 C 191.898438 66.164062 191.898438 65.972656 191.828125 65.835938 C 191.722656 65.625 191.734375 65.394531 191.6875 65.3125 C 191.660156 65.269531 191.410156 65.3125 191.402344 65.261719 C 191.375 65.160156 191.554688 64.941406 191.492188 64.757812 C 191.441406 64.628906 191.222656 64.550781 191.148438 64.402344 C 191.089844 64.292969 191.183594 64.148438 191.210938 64.03125 C 191.25 63.878906 191.160156 63.789062 191.175781 63.742188 C 191.230469 63.570312 191.359375 63.425781 191.394531 63.28125 C 191.414062 63.210938 191.347656 63.078125 191.394531 63.019531 C 191.484375 62.90625 191.734375 62.867188 191.828125 62.703125 C 191.914062 62.570312 191.945312 62.382812 192.015625 62.214844 C 192.082031 62.066406 192.171875 61.910156 192.214844 61.734375 C 192.25 61.566406 192.105469 61.367188 192.132812 61.214844 C 192.164062 61.027344 192.382812 60.890625 192.402344 60.757812 C 192.417969 60.652344 192.34375 60.640625 192.359375 60.53125 C 192.394531 60.308594 192.429688 60.09375 192.429688 59.902344 C 192.429688 59.617188 192.5 59.375 192.492188 59.261719 C 192.484375 59.210938 192.460938 59.214844 192.457031 59.160156 C 192.453125 59.144531 192.214844 59.136719 192.214844 59.121094 C 192.214844 58.964844 192.464844 58.785156 192.441406 58.617188 C 192.421875 58.460938 192.320312 58.304688 192.28125 58.144531 C 192.242188 57.988281 192.050781 57.882812 191.992188 57.730469 C 191.988281 57.71875 191.964844 57.707031 191.960938 57.695312 C 191.957031 57.6875 191.972656 57.6875 191.96875 57.679688 C 191.96875 57.664062 192.15625 57.5625 192.15625 57.546875 C 192.125 57.472656 192.023438 57.414062 191.996094 57.371094 C 191.910156 57.238281 191.761719 57.125 191.796875 56.980469 C 191.722656 56.753906 191.59375 56.578125 191.484375 56.347656 C 191.410156 56.199219 191.527344 55.976562 191.609375 55.828125 C 191.664062 55.71875 191.65625 55.582031 191.699219 55.476562 C 191.820312 55.167969 192.007812 54.910156 192.039062 54.765625 C 192.0625 54.695312 191.96875 54.671875 191.988281 54.59375 C 191.992188 54.578125 192.148438 54.597656 192.15625 54.582031 C 192.289062 54.238281 192.292969 53.886719 192.324219 53.753906 C 192.335938 53.714844 192.410156 53.734375 192.417969 53.695312 C 192.421875 53.667969 192.269531 53.578125 192.28125 53.554688 C 192.328125 53.4375 192.386719 53.328125 192.429688 53.207031 C 192.457031 53.125 192.472656 52.988281 192.539062 52.929688 C 192.664062 52.816406 192.921875 52.839844 193.023438 52.71875 C 193.128906 52.59375 193.203125 52.429688 193.28125 52.296875 C 193.371094 52.148438 193.363281 51.96875 193.421875 51.863281 C 193.578125 51.589844 193.671875 51.585938 193.679688 51.578125 C 193.773438 51.445312 193.828125 51.28125 193.902344 51.132812 C 193.976562 50.984375 194.070312 50.84375 194.128906 50.683594 C 194.15625 50.613281 194.179688 50.558594 194.230469 50.5 C 194.351562 50.378906 194.488281 50.21875 194.621094 50.035156 C 194.730469 49.878906 194.808594 49.683594 194.902344 49.492188 C 194.980469 49.316406 195.066406 49.132812 195.121094 48.921875 C 195.175781 48.691406 195.210938 48.453125 195.210938 48.203125 C 195.210938 48.058594 195.246094 47.902344 195.355469 47.804688 C 195.480469 47.691406 195.644531 47.636719 195.742188 47.527344 C 195.882812 47.371094 195.9375 47.128906 196.054688 46.929688 C 196.125 46.804688 196.277344 46.714844 196.417969 46.683594 C 196.570312 46.648438 196.726562 46.632812 196.863281 46.582031 C 197.007812 46.53125 197.167969 46.5 197.300781 46.433594 C 197.445312 46.355469 197.554688 46.128906 197.773438 45.960938 C 197.925781 45.839844 198.144531 45.765625 198.316406 45.589844 C 198.355469 45.550781 198.363281 45.4375 198.40625 45.410156 C 198.554688 45.335938 198.726562 45.300781 198.859375 45.207031 C 199 45.109375 199.203125 45.09375 199.328125 44.984375 C 199.453125 44.867188 199.558594 44.722656 199.667969 44.597656 C 199.765625 44.480469 199.734375 44.265625 199.828125 44.121094 C 199.882812 44.039062 200.058594 44.03125 200.152344 43.988281 C 200.304688 43.921875 200.5 43.917969 200.636719 43.832031 C 200.785156 43.742188 200.820312 43.511719 200.945312 43.40625 C 201.089844 43.28125 201.300781 43.203125 201.457031 43.039062 C 201.59375 42.890625 201.839844 42.808594 201.964844 42.628906 C 202.085938 42.464844 202.164062 42.246094 202.265625 42.050781 C 202.359375 41.871094 202.285156 41.613281 202.347656 41.410156 C 202.390625 41.253906 202.636719 41.101562 202.660156 40.890625 C 202.679688 40.714844 202.683594 40.5 202.667969 40.296875 C 202.65625 40.117188 202.617188 39.902344 202.566406 39.710938 C 202.535156 39.597656 202.316406 39.550781 202.273438 39.449219 C 202.238281 39.355469 202.226562 39.21875 202.242188 39.117188 C 202.253906 39.0625 202.320312 39.015625 202.328125 38.960938 C 202.34375 38.8125 202.390625 38.726562 202.515625 38.644531 C 202.726562 38.796875 202.707031 39.207031 202.914062 39.054688 C 203.121094 38.894531 202.582031 38.84375 202.523438 38.589844 C 202.691406 38.472656 202.839844 38.273438 202.964844 38.144531 C 203.117188 37.988281 203.328125 37.902344 203.421875 37.777344 C 203.496094 37.667969 203.5625 37.488281 203.691406 37.460938 C 203.835938 37.433594 204.003906 37.425781 204.1875 37.359375 C 204.34375 37.304688 204.527344 37.296875 204.691406 37.210938 C 204.835938 37.132812 204.964844 37.011719 205.105469 36.898438 C 205.238281 36.792969 205.433594 36.734375 205.550781 36.601562 C 205.664062 36.476562 205.8125 36.351562 205.910156 36.203125 C 206.027344 36.027344 206.144531 35.902344 206.355469 35.945312 C 206.527344 35.980469 206.699219 36.074219 206.882812 36.085938 C 207.054688 36.101562 207.242188 36.132812 207.425781 36.125 C 207.4375 36.125 207.488281 36.039062 207.507812 36.011719 L 207.507812 36.007812 C 207.507812 35.996094 207.453125 35.964844 207.464844 35.964844 C 207.484375 35.964844 207.542969 35.949219 207.566406 35.953125 C 207.585938 35.953125 207.566406 36.125 207.589844 36.128906 C 207.835938 36.152344 208.128906 35.953125 208.417969 35.929688 C 208.480469 35.921875 208.546875 36.027344 208.605469 36.039062 C 208.75 36.078125 208.929688 36.085938 209.117188 36.109375 C 209.277344 36.128906 209.449219 36.171875 209.632812 36.167969 C 209.800781 36.167969 209.953125 36.03125 210.128906 35.996094 C 210.292969 35.972656 210.46875 35.996094 210.648438 35.9375 C 210.804688 35.886719 211.023438 35.953125 211.195312 35.878906 C 211.195312 35.871094 211.167969 35.796875 211.167969 35.789062 C 211.171875 35.789062 211.21875 35.867188 211.234375 35.890625 C 211.230469 35.859375 211.195312 35.769531 211.195312 35.761719 C 211.195312 35.761719 211.179688 35.753906 211.179688 35.753906 C 211.261719 35.71875 211.308594 35.695312 211.324219 35.691406 C 211.503906 35.632812 211.664062 35.585938 211.8125 35.511719 C 211.980469 35.421875 212.101562 35.296875 212.230469 35.203125 C 212.390625 35.085938 212.519531 34.980469 212.625 34.875 C 212.671875 34.832031 212.765625 34.828125 212.824219 34.800781 C 213.015625 34.722656 213.214844 34.695312 213.375 34.617188 C 213.535156 34.53125 213.707031 34.421875 213.867188 34.308594 C 213.933594 34.261719 213.96875 34.066406 214.046875 34.054688 C 214.199219 34.03125 214.339844 34.023438 214.476562 33.988281 C 214.625 33.945312 214.828125 34.082031 214.960938 34.027344 C 215.148438 33.945312 215.308594 33.769531 215.5 33.648438 C 215.613281 33.574219 215.738281 33.59375 215.871094 33.621094 C 216.035156 33.652344 216.253906 33.53125 216.492188 33.542969 C 216.679688 33.550781 216.867188 33.542969 217.082031 33.515625 C 217.265625 33.488281 217.460938 33.617188 217.566406 33.601562 C 217.835938 33.550781 217.886719 33.429688 217.921875 33.425781 C 218.109375 33.414062 218.335938 33.5625 218.527344 33.515625 C 218.707031 33.464844 218.824219 33.191406 219.011719 33.121094 C 219.046875 33.105469 219.125 33.207031 219.160156 33.203125 C 219.378906 33.167969 219.582031 33.03125 219.808594 32.960938 C 219.863281 32.941406 219.941406 33.078125 220 33.078125 C 220.03125 33.078125 220.03125 33.046875 220.0625 33.046875 C 220.214844 33.050781 220.457031 33.003906 220.714844 32.992188 C 220.996094 32.980469 221.253906 32.847656 221.402344 32.832031 C 221.503906 32.816406 221.523438 33 221.628906 32.988281 C 221.664062 32.984375 221.703125 32.765625 221.738281 32.769531 C 221.808594 32.777344 221.796875 32.9375 221.863281 32.945312 C 221.949219 32.957031 222.128906 32.816406 222.347656 32.820312 C 222.492188 32.820312 222.65625 32.9375 222.828125 32.917969 C 223.039062 32.894531 223.257812 32.933594 223.429688 32.886719 C 223.691406 32.816406 223.835938 32.570312 223.925781 32.535156 C 223.929688 32.53125 223.964844 32.601562 223.972656 32.597656 C 224.003906 32.582031 224.046875 32.511719 224.085938 32.507812 C 224.136719 32.5 224.140625 32.527344 224.191406 32.519531 C 224.304688 32.507812 224.546875 32.628906 224.800781 32.574219 C 224.84375 32.566406 224.867188 32.464844 224.910156 32.46875 C 225.097656 32.476562 225.375 32.371094 225.714844 32.308594 C 225.96875 32.265625 226.121094 32.558594 226.203125 32.800781 C 226.214844 32.828125 226.320312 32.792969 226.332031 32.820312 C 226.398438 33 226.261719 33.105469 226.136719 33.246094 C 226.046875 33.351562 226.042969 33.570312 225.945312 33.722656 C 225.859375 33.847656 225.75 33.976562 225.679688 34.128906 C 225.613281 34.273438 225.539062 34.429688 225.5 34.589844 C 225.453125 34.8125 225.445312 35.046875 225.445312 35.269531 C 225.449219 35.488281 225.4375 35.730469 225.492188 35.945312 C 225.550781 36.160156 225.671875 36.367188 225.78125 36.566406 C 225.867188 36.726562 225.984375 36.871094 226.09375 36.996094 C 226.210938 37.140625 226.382812 37.210938 226.507812 37.320312 C 226.65625 37.441406 226.746094 37.625 226.882812 37.703125 C 227.0625 37.804688 227.21875 37.933594 227.351562 37.980469 C 227.472656 38.023438 227.683594 37.828125 227.839844 37.863281 C 227.972656 37.894531 228.082031 38.082031 228.234375 38.105469 C 228.261719 38.113281 228.246094 38.175781 228.273438 38.175781 C 228.394531 38.199219 228.488281 38.078125 228.539062 38.085938 C 228.625 38.105469 228.636719 38.253906 228.703125 38.308594 C 228.867188 38.449219 229.082031 38.511719 229.242188 38.617188 C 229.429688 38.734375 229.683594 38.792969 229.914062 38.894531 C 229.953125 38.90625 229.933594 39.007812 229.96875 39.03125 C 230.164062 39.175781 230.421875 39.144531 230.480469 39.175781 C 230.511719 39.191406 230.464844 39.335938 230.492188 39.359375 C 230.640625 39.492188 230.765625 39.675781 230.933594 39.785156 C 231.097656 39.898438 231.382812 39.800781 231.5625 39.882812 C 231.742188 39.96875 231.902344 40.074219 232.089844 40.128906 C 232.269531 40.179688 232.421875 40.273438 232.597656 40.296875 C 232.773438 40.324219 232.949219 40.417969 233.125 40.414062 C 233.304688 40.414062 233.5 40.441406 233.675781 40.410156 C 233.785156 40.386719 233.902344 40.234375 234 40.285156 C 234.113281 40.339844 234.03125 40.503906 234.144531 40.558594 C 234.175781 40.574219 234.269531 40.464844 234.296875 40.484375 C 234.546875 40.675781 234.84375 40.726562 234.945312 40.789062 C 235.046875 40.847656 235.019531 40.996094 235.042969 41.011719 C 235.054688 41.019531 235.078125 41.019531 235.089844 41.027344 C 235.140625 41.066406 235.21875 40.964844 235.265625 41 C 235.269531 41.007812 235.226562 41.082031 235.234375 41.085938 C 235.363281 41.195312 235.507812 41.492188 235.789062 41.671875 C 235.820312 41.6875 235.863281 41.664062 235.890625 41.691406 C 236.027344 41.832031 236.175781 41.953125 236.308594 42.054688 C 236.46875 42.175781 236.714844 42.125 236.859375 42.203125 C 237.046875 42.308594 237.109375 42.613281 237.25 42.660156 C 237.445312 42.734375 237.691406 42.695312 237.90625 42.722656 C 238.113281 42.746094 238.324219 42.625 238.546875 42.613281 C 238.628906 42.609375 238.722656 42.6875 238.800781 42.71875 C 238.960938 42.789062 239.085938 42.9375 239.246094 42.988281 C 239.414062 43.03125 239.585938 43.101562 239.746094 43.121094 C 239.9375 43.140625 240.125 42.96875 240.292969 42.957031 C 240.488281 42.949219 240.699219 43.125 240.859375 43.089844 C 241.0625 43.046875 241.175781 42.78125 241.316406 42.726562 C 241.34375 42.714844 241.433594 42.914062 241.460938 42.90625 C 241.652344 42.867188 241.796875 42.648438 241.972656 42.566406 C 242.152344 42.488281 242.367188 42.464844 242.523438 42.347656 C 242.675781 42.234375 242.855469 42.113281 242.980469 41.96875 C 243.109375 41.824219 243.171875 41.617188 243.261719 41.445312 C 243.28125 41.414062 243.230469 41.34375 243.253906 41.316406 C 243.359375 41.179688 243.609375 41.074219 243.730469 40.851562 C 243.828125 40.675781 243.90625 40.457031 243.980469 40.234375 C 244.046875 40.023438 244.164062 39.785156 244.378906 39.777344 C 244.441406 39.773438 244.5 39.738281 244.5625 39.730469 C 244.648438 39.722656 244.691406 39.964844 244.773438 39.996094 C 245.007812 40.097656 245.300781 40.007812 245.53125 40.046875 C 245.707031 40.078125 245.871094 39.996094 246.0625 39.992188 C 246.183594 39.992188 246.34375 40.109375 246.4375 40.179688 C 246.476562 40.210938 246.398438 40.398438 246.4375 40.429688 C 246.488281 40.464844 246.503906 40.480469 246.535156 40.535156 C 246.613281 40.648438 246.832031 40.71875 246.972656 40.875 C 247.078125 41 247.210938 41.113281 247.355469 41.234375 C 247.496094 41.351562 247.613281 41.488281 247.761719 41.578125 C 247.914062 41.667969 248.101562 41.675781 248.265625 41.734375 C 248.464844 41.804688 248.648438 41.847656 248.832031 41.875 C 249.042969 41.902344 249.234375 42.007812 249.421875 42 C 249.644531 41.992188 249.867188 42.058594 250.035156 42.023438 C 250.101562 42.011719 250.125 41.996094 250.191406 42.011719 C 250.4375 42.058594 250.683594 42.105469 250.898438 42.117188 C 251.074219 42.128906 251.085938 41.945312 251.261719 41.957031 C 251.484375 41.96875 251.640625 42.070312 251.796875 42.082031 C 251.992188 42.105469 252.191406 42.003906 252.550781 42.066406 C 252.753906 42.105469 252.753906 42.097656 252.957031 42.136719 C 253.027344 42.144531 253.101562 42.246094 253.160156 42.285156 C 253.25 42.34375 253.386719 42.503906 253.617188 42.613281 C 253.773438 42.6875 253.980469 42.65625 254.179688 42.714844 C 254.332031 42.753906 254.449219 42.9375 254.597656 42.957031 C 254.753906 42.976562 254.917969 43.039062 255.070312 43.03125 C 255.238281 43.023438 255.402344 42.882812 255.570312 42.851562 C 255.734375 42.820312 255.875 42.695312 256.035156 42.644531 C 256.1875 42.589844 256.382812 42.632812 256.53125 42.5625 C 256.675781 42.488281 256.816406 42.394531 256.953125 42.300781 C 257.105469 42.199219 257.335938 42.109375 257.5 42.191406 C 257.703125 42.292969 257.867188 42.480469 258.078125 42.539062 C 258.296875 42.601562 258.523438 42.625 258.75 42.644531 C 258.816406 42.648438 258.882812 42.535156 258.949219 42.535156 C 259.144531 42.542969 259.410156 42.699219 259.492188 42.875 C 259.578125 43.050781 259.503906 43.328125 259.386719 43.484375 C 259.253906 43.660156 259.066406 43.800781 258.976562 43.988281 C 258.90625 44.140625 258.851562 44.308594 258.800781 44.472656 C 258.753906 44.632812 258.621094 44.789062 258.597656 44.957031 C 258.574219 45.125 258.59375 45.3125 258.59375 45.484375 C 258.59375 45.644531 258.605469 45.828125 258.636719 46.003906 C 258.660156 46.164062 258.652344 46.347656 258.699219 46.523438 C 258.746094 46.679688 258.886719 46.816406 258.949219 46.984375 C 258.972656 47.03125 258.972656 47.066406 258.972656 47.117188 C 258.996094 47.347656 259.121094 47.550781 259.171875 47.761719 C 259.222656 47.984375 259.242188 48.207031 259.332031 48.40625 C 259.394531 48.546875 259.503906 48.667969 259.59375 48.8125 C 259.671875 48.945312 259.765625 49.074219 259.867188 49.210938 C 259.882812 49.230469 259.933594 49.195312 259.949219 49.21875 C 259.96875 49.242188 259.84375 49.359375 259.855469 49.382812 C 259.960938 49.59375 260.109375 49.753906 260.164062 49.84375 C 260.253906 49.996094 260.382812 49.992188 260.386719 50.007812 C 260.394531 50.015625 260.425781 50.011719 260.425781 50.023438 C 260.542969 50.261719 260.5 50.59375 260.558594 50.691406 C 260.664062 50.863281 260.726562 50.882812 260.730469 50.890625 C 260.832031 51.101562 260.96875 51.273438 261.03125 51.378906 C 261.03125 51.386719 261.035156 51.40625 261.039062 51.414062 C 261.140625 51.597656 261.078125 51.707031 261.101562 51.761719 C 261.183594 51.933594 261.382812 52.074219 261.507812 52.265625 C 261.546875 52.324219 261.644531 52.375 261.65625 52.445312 C 261.683594 52.617188 261.800781 52.753906 261.847656 52.917969 C 261.902344 53.082031 261.746094 53.324219 261.816406 53.472656 C 261.921875 53.6875 262.21875 53.824219 262.386719 54.0625 C 262.421875 54.117188 262.480469 54.203125 262.492188 54.265625 C 262.53125 54.425781 262.457031 54.699219 262.542969 54.941406 C 262.609375 55.121094 262.59375 55.128906 262.664062 55.308594 C 262.726562 55.492188 262.710938 55.640625 262.753906 55.753906 C 262.757812 55.777344 262.992188 55.742188 262.996094 55.769531 C 263 55.8125 262.875 55.835938 262.878906 55.878906 C 262.902344 55.976562 262.828125 56.1875 262.882812 56.40625 C 262.925781 56.5625 263.011719 56.734375 263.078125 56.902344 C 263.160156 57.113281 263.355469 57.269531 263.457031 57.4375 C 263.585938 57.648438 263.625 57.90625 263.734375 58.035156 C 263.769531 58.082031 263.972656 58.035156 263.996094 58.085938 C 264.046875 58.230469 264.105469 58.367188 264.171875 58.503906 C 264.238281 58.644531 264.230469 58.824219 264.308594 58.953125 C 264.34375 59.003906 264.3125 59.078125 264.328125 59.140625 C 264.363281 59.335938 264.351562 59.5 264.375 59.589844 C 264.375 59.597656 264.363281 59.609375 264.363281 59.613281 C 264.378906 59.667969 264.464844 59.648438 264.480469 59.703125 C 264.488281 59.742188 264.519531 59.769531 264.523438 59.816406 C 264.523438 59.828125 264.566406 59.828125 264.566406 59.84375 C 264.566406 59.847656 264.515625 59.847656 264.515625 59.851562 C 264.515625 59.851562 264.484375 59.882812 264.484375 59.882812 C 264.496094 59.882812 264.527344 59.867188 264.535156 59.867188 C 264.546875 60.042969 264.722656 60.183594 264.753906 60.339844 C 264.785156 60.511719 264.703125 60.695312 264.753906 60.851562 C 264.804688 61.011719 264.9375 61.128906 265.007812 61.277344 C 265.113281 61.488281 265.175781 61.714844 265.328125 61.910156 C 265.472656 62.09375 265.664062 62.234375 265.847656 62.402344 C 265.894531 62.449219 265.882812 62.554688 265.910156 62.609375 C 265.996094 62.792969 265.984375 63.039062 266.085938 63.199219 C 266.203125 63.367188 266.519531 63.371094 266.644531 63.511719 C 266.773438 63.648438 266.769531 63.9375 266.929688 64.0625 C 267.078125 64.183594 267.234375 64.335938 267.40625 64.441406 C 267.421875 64.453125 267.484375 64.390625 267.527344 64.363281 C 267.511719 64.421875 267.492188 64.488281 267.496094 64.488281 C 267.507812 64.5 267.644531 64.296875 267.660156 64.304688 C 267.660156 64.308594 267.636719 64.332031 267.636719 64.335938 C 267.660156 64.347656 267.761719 64.394531 267.78125 64.40625 C 267.78125 64.410156 267.773438 64.410156 267.753906 64.414062 C 267.941406 64.542969 268.089844 64.824219 268.050781 65.027344 C 268.0625 65.058594 267.972656 65.082031 267.988281 65.113281 C 268.003906 65.148438 267.941406 65.199219 267.949219 65.238281 C 267.992188 65.421875 268.058594 65.746094 268.207031 66.058594 C 268.332031 66.320312 268.578125 66.507812 268.75 66.710938 C 268.785156 66.757812 268.742188 66.796875 268.78125 66.84375 C 268.847656 66.925781 269.09375 66.933594 269.234375 67.085938 C 269.335938 67.195312 269.339844 67.417969 269.46875 67.539062 C 269.582031 67.648438 269.6875 67.785156 269.820312 67.886719 C 269.980469 68.011719 270.171875 68.09375 270.34375 68.175781 C 270.527344 68.269531 270.769531 68.175781 270.945312 68.230469 C 271.15625 68.292969 271.304688 68.523438 271.472656 68.542969 C 271.597656 68.558594 271.78125 68.503906 271.867188 68.597656 C 272.03125 68.785156 272.167969 68.976562 272.335938 69.117188 C 272.492188 69.25 272.589844 69.507812 272.78125 69.609375 C 272.925781 69.6875 273.160156 69.710938 273.183594 69.871094 C 273.214844 70.09375 273.265625 70.300781 273.328125 70.515625 C 273.394531 70.734375 273.398438 70.96875 273.488281 71.171875 C 273.585938 71.378906 273.726562 71.554688 273.847656 71.738281 C 273.957031 71.898438 274.03125 72.0625 274.152344 72.195312 C 274.28125 72.335938 274.441406 72.425781 274.582031 72.539062 C 274.730469 72.65625 274.875 72.761719 275.027344 72.851562 C 275.195312 72.949219 275.308594 73.136719 275.46875 73.203125 C 275.652344 73.285156 275.890625 73.171875 276.046875 73.222656 C 276.09375 73.230469 276.089844 73.242188 276.136719 73.257812 C 276.304688 73.308594 276.429688 73.519531 276.59375 73.550781 C 276.773438 73.589844 276.960938 73.503906 277.136719 73.515625 C 277.3125 73.535156 277.484375 73.632812 277.65625 73.625 C 277.832031 73.617188 277.984375 73.433594 278.152344 73.402344 C 278.347656 73.363281 278.617188 73.523438 278.828125 73.445312 C 278.894531 73.417969 278.921875 73.386719 278.992188 73.394531 C 279.238281 73.414062 279.480469 73.3125 279.699219 73.289062 C 279.835938 73.273438 280.050781 73.351562 280.277344 73.292969 C 280.433594 73.246094 280.554688 72.996094 280.746094 72.921875 C 280.777344 72.910156 280.816406 72.878906 280.847656 72.871094 C 281.027344 72.835938 281.199219 72.78125 281.382812 72.71875 C 281.453125 72.691406 281.5625 72.753906 281.632812 72.757812 C 281.691406 72.761719 281.753906 72.703125 281.824219 72.703125 C 281.988281 72.703125 282.050781 72.953125 282.144531 73.089844 C 282.242188 73.226562 282.25 73.296875 282.195312 73.457031 C 282.148438 73.59375 282.117188 73.757812 282.082031 73.914062 Z M 282.082031 73.914062 " fill-opacity="1" fill-rule="nonzero"/><g clip-path="url(#7b7090b0cc)"><g clip-path="url(#f64778be4f)"><path fill="#1f2605" d="M 1.039062 19.40625 L 62.507812 19.40625 L 62.507812 84 L 1.039062 84 Z M 1.039062 19.40625 " fill-opacity="1" fill-rule="nonzero"/></g></g><g clip-path="url(#c063edfb54)"><g clip-path="url(#5eab304e40)"><path stroke-linecap="butt" transform="matrix(0.824955, 0, 0, 0.824955, 1.037242, 19.409851)" fill="none" stroke-linejoin="miter" d="M 37.248543 0.000370216 C 16.679246 0.000370216 0.00220637 17.515524 0.00220637 39.121808 C 0.00220637 60.728092 16.679246 78.243246 37.248543 78.243246 C 57.822574 78.243246 74.499614 60.728092 74.499614 39.121808 C 74.499614 17.515524 57.822574 0.000370216 37.248543 0.000370216 Z M 37.248543 0.000370216 " stroke="#dce150" stroke-width="3.617217" stroke-opacity="1" stroke-miterlimit="4"/></g></g><g fill="#dce150" fill-opacity="1"><g transform="translate(16.866073, 59.005067)"><g><path d="M 16.46875 -2.078125 C 15.609375 -2.078125 15.25 -2.765625 15.484375 -4.171875 L 16.0625 -7.546875 C 16.171875 -8.25 16.265625 -8.953125 16.265625 -9.46875 C 16.265625 -10.953125 15.3125 -11.921875 13.8125 -11.921875 C 12.125 -11.921875 10.671875 -10.28125 9.90625 -8.921875 C 9.90625 -9.109375 9.921875 -9.28125 9.921875 -9.453125 C 9.921875 -11 8.953125 -11.921875 7.4375 -11.921875 C 5.796875 -11.921875 4.390625 -10.3125 3.609375 -9 L 3.703125 -9.5625 C 3.984375 -11.234375 3.765625 -11.921875 1.9375 -11.921875 C 1.046875 -11.921875 0.6875 -11.71875 0.6875 -11.71875 C 0.6875 -11.71875 0.9375 -11.171875 0.671875 -9.65625 L -0.59375 -2.359375 C -0.875 -0.6875 -0.671875 0 1.171875 0 C 2.046875 0 2.40625 -0.21875 2.40625 -0.21875 C 2.40625 -0.21875 2.171875 -0.765625 2.4375 -2.265625 C 3.21875 -6.6875 5.078125 -9.828125 6.25 -9.828125 C 6.828125 -9.828125 6.984375 -9.359375 6.796875 -8.328125 L 5.75 -2.359375 C 5.46875 -0.6875 5.671875 0 7.515625 0 C 8.40625 0 8.75 -0.21875 8.75 -0.21875 C 8.75 -0.21875 8.515625 -0.765625 8.78125 -2.265625 C 9.515625 -6.34375 11.359375 -9.828125 12.578125 -9.828125 C 13.09375 -9.828125 13.34375 -9.453125 13.140625 -8.328125 L 12.6875 -5.703125 C 12.546875 -4.875 12.328125 -3.609375 12.328125 -2.984375 C 12.328125 -1.1875 13.4375 0 15.21875 0 C 17.4375 0 19.203125 -2.3125 19.421875 -3.53125 C 19.5 -3.953125 19.28125 -4.15625 18.96875 -4.15625 C 18.34375 -2.859375 17.421875 -2.078125 16.46875 -2.078125 Z M 16.46875 -2.078125 "/></g></g></g><g fill="#dce150" fill-opacity="1"><g transform="translate(36.072757, 59.005067)"><g><path d="M 3.703125 -9.5625 C 3.984375 -11.171875 3.765625 -11.921875 1.9375 -11.921875 C 1.046875 -11.921875 0.6875 -11.71875 0.6875 -11.71875 C 0.6875 -11.71875 0.9375 -11.171875 0.671875 -9.65625 L -0.59375 -2.359375 C -0.875 -0.6875 -0.671875 0 1.171875 0 C 2.046875 0 2.40625 -0.21875 2.40625 -0.21875 C 2.40625 -0.21875 2.171875 -0.71875 2.40625 -2.125 C 2.984375 -5.484375 3.765625 -6.96875 4.671875 -8.234375 C 5.46875 -9.328125 5.984375 -9.640625 6.375 -9.640625 C 6.734375 -9.640625 6.875 -9.453125 6.875 -9.109375 C 6.875 -8.46875 6.5625 -7.921875 6.5625 -7.921875 C 6.5625 -7.921875 7.015625 -7.78125 7.640625 -7.78125 C 8.796875 -7.78125 9.609375 -8.734375 9.609375 -10.0625 C 9.609375 -11.28125 8.875 -11.921875 7.703125 -11.921875 C 6.640625 -11.921875 5.03125 -11.09375 3.5 -8.515625 Z M 3.703125 -9.5625 "/></g></g></g><g fill="#a4a71e" fill-opacity="1"><g transform="translate(57.086453, 75.771144)"><g><path d="M 36.046875 0 L 34.09375 -6.53125 L 17.859375 -6.53125 L 15.90625 0 L 0.671875 0 L 17.578125 -46.359375 L 34.90625 -46.359375 L 51.8125 0 Z M 20.953125 -16.90625 L 31 -16.90625 L 26.140625 -33.421875 L 25.875 -33.421875 Z M 20.953125 -16.90625 "/></g></g></g><g fill="#a4a71e" fill-opacity="1"><g transform="translate(109.504505, 75.771144)"><g><path d="M 18.53125 -49.65625 C 19.519531 -49.65625 20.753906 -49.53125 22.234375 -49.28125 C 23.710938 -49.039062 24.898438 -48.757812 25.796875 -48.4375 L 25.796875 -40.5625 L 22.703125 -40.5625 C 21.265625 -40.5625 20.273438 -40.289062 19.734375 -39.75 C 19.203125 -39.207031 18.9375 -38.285156 18.9375 -36.984375 L 18.9375 -35.578125 L 25.796875 -35.578125 L 25.796875 -26.484375 L 18.9375 -26.484375 L 18.9375 0 L 5.53125 0 L 5.53125 -26.484375 L 0.53125 -26.484375 L 0.53125 -35.578125 L 5.53125 -35.578125 L 5.53125 -37.0625 C 5.53125 -41.632812 6.648438 -44.875 8.890625 -46.78125 C 11.140625 -48.695312 14.351562 -49.65625 18.53125 -49.65625 Z M 18.53125 -49.65625 "/></g></g></g><g fill="#a4a71e" fill-opacity="1"><g transform="translate(135.713541, 75.771144)"><g><path d="M 25.671875 -36.453125 C 26.703125 -36.453125 27.617188 -36.328125 28.421875 -36.078125 C 29.234375 -35.828125 29.640625 -35.679688 29.640625 -35.640625 L 29.640625 -24.390625 L 25.328125 -24.390625 C 22.546875 -24.390625 20.535156 -23.671875 19.296875 -22.234375 C 18.066406 -20.796875 17.453125 -18.660156 17.453125 -15.828125 L 17.453125 0 L 4.046875 0 L 4.046875 -35.578125 L 15.03125 -35.578125 L 15.90625 -30.1875 C 16.707031 -32.25 17.984375 -33.804688 19.734375 -34.859375 C 21.492188 -35.921875 23.472656 -36.453125 25.671875 -36.453125 Z M 25.671875 -36.453125 "/></g></g></g><g fill="#a4a71e" fill-opacity="1"><g transform="translate(165.628208, 75.771144)"><g><path d="M 4.515625 -39.75 L 4.515625 -48.84375 L 17.921875 -48.84375 L 17.921875 -39.75 Z M 4.515625 0 L 4.515625 -35.578125 L 17.921875 -35.578125 L 17.921875 0 Z M 4.515625 0 "/></g></g></g><g fill="#1f6521" fill-opacity="1"><g transform="translate(284.15589, 75.771144)"><g><path d="M 29.84375 0 L 28.96875 -5.390625 C 27.570312 -3.460938 25.738281 -1.945312 23.46875 -0.84375 C 21.207031 0.257812 18.820312 0.8125 16.3125 0.8125 C 12.175781 0.8125 9.070312 -0.332031 7 -2.625 C 4.9375 -4.914062 3.90625 -8.21875 3.90625 -12.53125 L 3.90625 -35.578125 L 17.3125 -35.578125 L 17.3125 -14.15625 C 17.3125 -12.625 17.703125 -11.394531 18.484375 -10.46875 C 19.273438 -9.550781 20.390625 -9.09375 21.828125 -9.09375 C 23.492188 -9.09375 24.84375 -9.628906 25.875 -10.703125 C 26.90625 -11.785156 27.421875 -13.113281 27.421875 -14.6875 L 27.421875 -35.578125 L 40.828125 -35.578125 L 40.828125 0 Z M 29.84375 0 "/></g></g></g><g fill="#1f6521" fill-opacity="1"><g transform="translate(329.095267, 75.771144)"><g><path d="M 22.4375 -36.375 C 28.945312 -36.375 33.921875 -34.847656 37.359375 -31.796875 C 40.796875 -28.742188 42.515625 -24.070312 42.515625 -17.78125 L 42.515625 -15.5 L 15.828125 -15.5 C 15.828125 -12.9375 16.398438 -11.003906 17.546875 -9.703125 C 18.691406 -8.398438 20.5 -7.75 22.96875 -7.75 C 25.21875 -7.75 26.867188 -8.21875 27.921875 -9.15625 C 28.984375 -10.101562 29.515625 -11.363281 29.515625 -12.9375 L 42.515625 -12.9375 C 42.515625 -8.625 40.875 -5.253906 37.59375 -2.828125 C 34.3125 -0.398438 29.53125 0.8125 23.25 0.8125 C 16.644531 0.8125 11.519531 -0.722656 7.875 -3.796875 C 4.238281 -6.878906 2.421875 -11.539062 2.421875 -17.78125 C 2.421875 -23.894531 4.195312 -28.519531 7.75 -31.65625 C 11.300781 -34.800781 16.195312 -36.375 22.4375 -36.375 Z M 22.96875 -27.828125 C 18.75 -27.828125 16.394531 -25.828125 15.90625 -21.828125 L 28.96875 -21.828125 C 28.96875 -23.671875 28.4375 -25.128906 27.375 -26.203125 C 26.320312 -27.285156 24.851562 -27.828125 22.96875 -27.828125 Z M 22.96875 -27.828125 "/></g></g></g></svg>